<?xml version="1.0" encoding="utf-8" standalone="no"?>
<!DOCTYPE svg PUBLIC "-//W3C//DTD SVG 1.1//EN"
  "http://www.w3.org/Graphics/SVG/1.1/DTD/svg11.dtd">
<svg xmlns:xlink="http://www.w3.org/1999/xlink" width="478.993466pt" height="248.518125pt" viewBox="0 0 478.993466 248.518125" xmlns="http://www.w3.org/2000/svg" version="1.1">
 <metadata>
  <rdf:RDF xmlns:dc="http://purl.org/dc/elements/1.1/" xmlns:cc="http://creativecommons.org/ns#" xmlns:rdf="http://www.w3.org/1999/02/22-rdf-syntax-ns#">
   <cc:Work>
    <dc:type rdf:resource="http://purl.org/dc/dcmitype/StillImage"/>
    <dc:date>2022-09-26T00:03:47.399058</dc:date>
    <dc:format>image/svg+xml</dc:format>
    <dc:creator>
     <cc:Agent>
      <dc:title>Matplotlib v3.5.2, https://matplotlib.org/</dc:title>
     </cc:Agent>
    </dc:creator>
   </cc:Work>
  </rdf:RDF>
 </metadata>
 <defs>
  <style type="text/css">*{stroke-linejoin: round; stroke-linecap: butt}</style>
 </defs>
 <g id="figure_1">
  <g id="patch_1">
   <path d="M 0 248.518125 
L 478.993466 248.518125 
L 478.993466 0 
L 0 0 
L 0 248.518125 
z
" style="fill: none"/>
  </g>
  <g id="axes_1">
   <g id="patch_2">
    <path d="M 28.942188 106.036364 
L 181.124006 106.036364 
L 181.124006 7.2 
L 28.942188 7.2 
z
" style="fill: #ffffff"/>
   </g>
   <g id="PathCollection_1">
    <defs>
     <path id="C0_0_ce730382e8" d="M 0 3.535534 
C 0.937635 3.535534 1.836992 3.163008 2.5 2.5 
C 3.163008 1.836992 3.535534 0.937635 3.535534 -0 
C 3.535534 -0.937635 3.163008 -1.836992 2.5 -2.5 
C 1.836992 -3.163008 0.937635 -3.535534 0 -3.535534 
C -0.937635 -3.535534 -1.836992 -3.163008 -2.5 -2.5 
C -3.163008 -1.836992 -3.535534 -0.937635 -3.535534 0 
C -3.535534 0.937635 -3.163008 1.836992 -2.5 2.5 
C -1.836992 3.163008 -0.937635 3.535534 0 3.535534 
z
"/>
    </defs>
    <g clip-path="url(#pfa2b96f8e8)">
     <use xlink:href="#C0_0_ce730382e8" x="35.859543" y="52.73527" style="fill: none; stroke: #0000ff"/>
    </g>
    <g clip-path="url(#pfa2b96f8e8)">
     <use xlink:href="#C0_0_ce730382e8" x="51.231444" y="45.250561" style="fill: none; stroke: #0000ff"/>
    </g>
    <g clip-path="url(#pfa2b96f8e8)">
     <use xlink:href="#C0_0_ce730382e8" x="66.603345" y="12.372947" style="fill: none; stroke: #0000ff"/>
    </g>
    <g clip-path="url(#pfa2b96f8e8)">
     <use xlink:href="#C0_0_ce730382e8" x="81.975245" y="30.661696" style="fill: none; stroke: #0000ff"/>
    </g>
    <g clip-path="url(#pfa2b96f8e8)">
     <use xlink:href="#C0_0_ce730382e8" x="97.347146" y="51.285204" style="fill: none; stroke: #0000ff"/>
    </g>
    <g clip-path="url(#pfa2b96f8e8)">
     <use xlink:href="#C0_0_ce730382e8" x="112.719047" y="60.579194" style="fill: none; stroke: #0000ff"/>
    </g>
    <g clip-path="url(#pfa2b96f8e8)">
     <use xlink:href="#C0_0_ce730382e8" x="128.090948" y="78.0699" style="fill: none; stroke: #0000ff"/>
    </g>
    <g clip-path="url(#pfa2b96f8e8)">
     <use xlink:href="#C0_0_ce730382e8" x="143.462849" y="94.30576" style="fill: none; stroke: #0000ff"/>
    </g>
    <g clip-path="url(#pfa2b96f8e8)">
     <use xlink:href="#C0_0_ce730382e8" x="158.834749" y="77.665831" style="fill: none; stroke: #0000ff"/>
    </g>
    <g clip-path="url(#pfa2b96f8e8)">
     <use xlink:href="#C0_0_ce730382e8" x="174.20665" y="75.089751" style="fill: none; stroke: #0000ff"/>
    </g>
   </g>
   <g id="matplotlib.axis_1">
    <g id="xtick_1">
     <g id="line2d_1">
      <defs>
       <path id="m7cca66c236" d="M 0 0 
L 0 3.5 
" style="stroke: #000000; stroke-width: 0.8"/>
      </defs>
      <g>
       <use xlink:href="#m7cca66c236" x="35.859543" y="106.036364" style="stroke: #000000; stroke-width: 0.8"/>
      </g>
     </g>
     <g id="text_1">
      <!-- 0.00 -->
      <g transform="translate(24.72673 120.634801)scale(0.1 -0.1)">
       <defs>
        <path id="DejaVuSans-30" d="M 2034 4250 
Q 1547 4250 1301 3770 
Q 1056 3291 1056 2328 
Q 1056 1369 1301 889 
Q 1547 409 2034 409 
Q 2525 409 2770 889 
Q 3016 1369 3016 2328 
Q 3016 3291 2770 3770 
Q 2525 4250 2034 4250 
z
M 2034 4750 
Q 2819 4750 3233 4129 
Q 3647 3509 3647 2328 
Q 3647 1150 3233 529 
Q 2819 -91 2034 -91 
Q 1250 -91 836 529 
Q 422 1150 422 2328 
Q 422 3509 836 4129 
Q 1250 4750 2034 4750 
z
" transform="scale(0.015625)"/>
        <path id="DejaVuSans-2e" d="M 684 794 
L 1344 794 
L 1344 0 
L 684 0 
L 684 794 
z
" transform="scale(0.015625)"/>
       </defs>
       <use xlink:href="#DejaVuSans-30"/>
       <use xlink:href="#DejaVuSans-2e" x="63.623047"/>
       <use xlink:href="#DejaVuSans-30" x="95.410156"/>
       <use xlink:href="#DejaVuSans-30" x="159.033203"/>
      </g>
     </g>
    </g>
    <g id="xtick_2">
     <g id="line2d_2">
      <g>
       <use xlink:href="#m7cca66c236" x="70.44632" y="106.036364" style="stroke: #000000; stroke-width: 0.8"/>
      </g>
     </g>
     <g id="text_2">
      <!-- 0.25 -->
      <g transform="translate(59.313507 120.634801)scale(0.1 -0.1)">
       <defs>
        <path id="DejaVuSans-32" d="M 1228 531 
L 3431 531 
L 3431 0 
L 469 0 
L 469 531 
Q 828 903 1448 1529 
Q 2069 2156 2228 2338 
Q 2531 2678 2651 2914 
Q 2772 3150 2772 3378 
Q 2772 3750 2511 3984 
Q 2250 4219 1831 4219 
Q 1534 4219 1204 4116 
Q 875 4013 500 3803 
L 500 4441 
Q 881 4594 1212 4672 
Q 1544 4750 1819 4750 
Q 2544 4750 2975 4387 
Q 3406 4025 3406 3419 
Q 3406 3131 3298 2873 
Q 3191 2616 2906 2266 
Q 2828 2175 2409 1742 
Q 1991 1309 1228 531 
z
" transform="scale(0.015625)"/>
        <path id="DejaVuSans-35" d="M 691 4666 
L 3169 4666 
L 3169 4134 
L 1269 4134 
L 1269 2991 
Q 1406 3038 1543 3061 
Q 1681 3084 1819 3084 
Q 2600 3084 3056 2656 
Q 3513 2228 3513 1497 
Q 3513 744 3044 326 
Q 2575 -91 1722 -91 
Q 1428 -91 1123 -41 
Q 819 9 494 109 
L 494 744 
Q 775 591 1075 516 
Q 1375 441 1709 441 
Q 2250 441 2565 725 
Q 2881 1009 2881 1497 
Q 2881 1984 2565 2268 
Q 2250 2553 1709 2553 
Q 1456 2553 1204 2497 
Q 953 2441 691 2322 
L 691 4666 
z
" transform="scale(0.015625)"/>
       </defs>
       <use xlink:href="#DejaVuSans-30"/>
       <use xlink:href="#DejaVuSans-2e" x="63.623047"/>
       <use xlink:href="#DejaVuSans-32" x="95.410156"/>
       <use xlink:href="#DejaVuSans-35" x="159.033203"/>
      </g>
     </g>
    </g>
    <g id="xtick_3">
     <g id="line2d_3">
      <g>
       <use xlink:href="#m7cca66c236" x="105.033097" y="106.036364" style="stroke: #000000; stroke-width: 0.8"/>
      </g>
     </g>
     <g id="text_3">
      <!-- 0.50 -->
      <g transform="translate(93.900284 120.634801)scale(0.1 -0.1)">
       <use xlink:href="#DejaVuSans-30"/>
       <use xlink:href="#DejaVuSans-2e" x="63.623047"/>
       <use xlink:href="#DejaVuSans-35" x="95.410156"/>
       <use xlink:href="#DejaVuSans-30" x="159.033203"/>
      </g>
     </g>
    </g>
    <g id="xtick_4">
     <g id="line2d_4">
      <g>
       <use xlink:href="#m7cca66c236" x="139.619873" y="106.036364" style="stroke: #000000; stroke-width: 0.8"/>
      </g>
     </g>
     <g id="text_4">
      <!-- 0.75 -->
      <g transform="translate(128.487061 120.634801)scale(0.1 -0.1)">
       <defs>
        <path id="DejaVuSans-37" d="M 525 4666 
L 3525 4666 
L 3525 4397 
L 1831 0 
L 1172 0 
L 2766 4134 
L 525 4134 
L 525 4666 
z
" transform="scale(0.015625)"/>
       </defs>
       <use xlink:href="#DejaVuSans-30"/>
       <use xlink:href="#DejaVuSans-2e" x="63.623047"/>
       <use xlink:href="#DejaVuSans-37" x="95.410156"/>
       <use xlink:href="#DejaVuSans-35" x="159.033203"/>
      </g>
     </g>
    </g>
    <g id="xtick_5">
     <g id="line2d_5">
      <g>
       <use xlink:href="#m7cca66c236" x="174.20665" y="106.036364" style="stroke: #000000; stroke-width: 0.8"/>
      </g>
     </g>
     <g id="text_5">
      <!-- 1.00 -->
      <g transform="translate(163.073838 120.634801)scale(0.1 -0.1)">
       <defs>
        <path id="DejaVuSans-31" d="M 794 531 
L 1825 531 
L 1825 4091 
L 703 3866 
L 703 4441 
L 1819 4666 
L 2450 4666 
L 2450 531 
L 3481 531 
L 3481 0 
L 794 0 
L 794 531 
z
" transform="scale(0.015625)"/>
       </defs>
       <use xlink:href="#DejaVuSans-31"/>
       <use xlink:href="#DejaVuSans-2e" x="63.623047"/>
       <use xlink:href="#DejaVuSans-30" x="95.410156"/>
       <use xlink:href="#DejaVuSans-30" x="159.033203"/>
      </g>
     </g>
    </g>
   </g>
   <g id="matplotlib.axis_2">
    <g id="ytick_1">
     <g id="line2d_6">
      <defs>
       <path id="mc14c08d2ba" d="M 0 0 
L -3.5 0 
" style="stroke: #000000; stroke-width: 0.8"/>
      </defs>
      <g>
       <use xlink:href="#mc14c08d2ba" x="28.942188" y="89.563636" style="stroke: #000000; stroke-width: 0.8"/>
      </g>
     </g>
     <g id="text_6">
      <!-- −1 -->
      <g transform="translate(7.2 93.362855)scale(0.1 -0.1)">
       <defs>
        <path id="DejaVuSans-2212" d="M 678 2272 
L 4684 2272 
L 4684 1741 
L 678 1741 
L 678 2272 
z
" transform="scale(0.015625)"/>
       </defs>
       <use xlink:href="#DejaVuSans-2212"/>
       <use xlink:href="#DejaVuSans-31" x="83.789062"/>
      </g>
     </g>
    </g>
    <g id="ytick_2">
     <g id="line2d_7">
      <g>
       <use xlink:href="#mc14c08d2ba" x="28.942188" y="56.618182" style="stroke: #000000; stroke-width: 0.8"/>
      </g>
     </g>
     <g id="text_7">
      <!-- 0 -->
      <g transform="translate(15.579688 60.417401)scale(0.1 -0.1)">
       <use xlink:href="#DejaVuSans-30"/>
      </g>
     </g>
    </g>
    <g id="ytick_3">
     <g id="line2d_8">
      <g>
       <use xlink:href="#mc14c08d2ba" x="28.942188" y="23.672727" style="stroke: #000000; stroke-width: 0.8"/>
      </g>
     </g>
     <g id="text_8">
      <!-- 1 -->
      <g transform="translate(15.579688 27.471946)scale(0.1 -0.1)">
       <use xlink:href="#DejaVuSans-31"/>
      </g>
     </g>
    </g>
   </g>
   <g id="line2d_9">
    <path d="M 35.859543 56.618182 
L 37.256988 54.528652 
L 38.654434 52.447536 
L 40.051879 50.383214 
L 41.449325 48.343997 
L 42.846771 46.338098 
L 44.244216 44.373593 
L 45.641662 42.458393 
L 47.039107 40.600209 
L 48.436553 38.806524 
L 49.833998 37.084561 
L 51.231444 35.441252 
L 52.628889 33.883215 
L 54.026335 32.416724 
L 55.42378 31.047684 
L 56.821226 29.781607 
L 58.218671 28.623591 
L 59.616117 27.5783 
L 61.013562 26.649942 
L 62.411008 25.842256 
L 63.808453 25.158493 
L 65.205899 24.601408 
L 66.603345 24.173243 
L 68.00079 23.875722 
L 69.398236 23.710043 
L 70.795681 23.676874 
L 72.193127 23.776348 
L 73.590572 24.008064 
L 74.988018 24.37109 
L 76.385463 24.863964 
L 77.782909 25.4847 
L 79.180354 26.2308 
L 80.5778 27.09926 
L 81.975245 28.086581 
L 83.372691 29.18879 
L 84.770136 30.401446 
L 86.167582 31.719669 
L 87.565027 33.138148 
L 88.962473 34.651174 
L 90.359919 36.252653 
L 91.757364 37.936137 
L 93.15481 39.694847 
L 94.552255 41.521701 
L 95.949701 43.409343 
L 97.347146 45.350173 
L 98.744592 47.336375 
L 100.142037 49.359951 
L 101.539483 51.412754 
L 102.936928 53.486517 
L 104.334374 55.572891 
L 105.731819 57.663473 
L 107.129265 59.749846 
L 108.52671 61.82361 
L 109.924156 63.876412 
L 111.321601 65.899989 
L 112.719047 67.886191 
L 114.116493 69.827021 
L 115.513938 71.714663 
L 116.911384 73.541517 
L 118.308829 75.300227 
L 119.706275 76.983711 
L 121.10372 78.58519 
L 122.501166 80.098215 
L 123.898611 81.516695 
L 125.296057 82.834917 
L 126.693502 84.047574 
L 128.090948 85.149782 
L 129.488393 86.137104 
L 130.885839 87.005563 
L 132.283284 87.751663 
L 133.68073 88.3724 
L 135.078175 88.865273 
L 136.475621 89.228299 
L 137.873067 89.460016 
L 139.270512 89.559489 
L 140.667958 89.52632 
L 142.065403 89.360642 
L 143.462849 89.063121 
L 144.860294 88.634956 
L 146.25774 88.07787 
L 147.655185 87.394108 
L 149.052631 86.586421 
L 150.450076 85.658064 
L 151.847522 84.612772 
L 153.244967 83.454757 
L 154.642413 82.18868 
L 156.039858 80.81964 
L 157.437304 79.353149 
L 158.834749 77.795112 
L 160.232195 76.151803 
L 161.629641 74.429839 
L 163.027086 72.636154 
L 164.424532 70.777971 
L 165.821977 68.86277 
L 167.219423 66.898266 
L 168.616868 64.892366 
L 170.014314 62.85315 
L 171.411759 60.788828 
L 172.809205 58.707712 
L 174.20665 56.618182 
" clip-path="url(#pfa2b96f8e8)" style="fill: none; stroke: #008000; stroke-width: 1.5; stroke-linecap: square"/>
   </g>
   <g id="line2d_10">
    <path d="M 35.859543 57.801611 
L 37.256988 57.801611 
L 38.654434 57.801611 
L 40.051879 57.801611 
L 41.449325 57.801611 
L 42.846771 57.801611 
L 44.244216 57.801611 
L 45.641662 57.801611 
L 47.039107 57.801611 
L 48.436553 57.801611 
L 49.833998 57.801611 
L 51.231444 57.801611 
L 52.628889 57.801611 
L 54.026335 57.801611 
L 55.42378 57.801611 
L 56.821226 57.801611 
L 58.218671 57.801611 
L 59.616117 57.801611 
L 61.013562 57.801611 
L 62.411008 57.801611 
L 63.808453 57.801611 
L 65.205899 57.801611 
L 66.603345 57.801611 
L 68.00079 57.801611 
L 69.398236 57.801611 
L 70.795681 57.801611 
L 72.193127 57.801611 
L 73.590572 57.801611 
L 74.988018 57.801611 
L 76.385463 57.801611 
L 77.782909 57.801611 
L 79.180354 57.801611 
L 80.5778 57.801611 
L 81.975245 57.801611 
L 83.372691 57.801611 
L 84.770136 57.801611 
L 86.167582 57.801611 
L 87.565027 57.801611 
L 88.962473 57.801611 
L 90.359919 57.801611 
L 91.757364 57.801611 
L 93.15481 57.801611 
L 94.552255 57.801611 
L 95.949701 57.801611 
L 97.347146 57.801611 
L 98.744592 57.801611 
L 100.142037 57.801611 
L 101.539483 57.801611 
L 102.936928 57.801611 
L 104.334374 57.801611 
L 105.731819 57.801611 
L 107.129265 57.801611 
L 108.52671 57.801611 
L 109.924156 57.801611 
L 111.321601 57.801611 
L 112.719047 57.801611 
L 114.116493 57.801611 
L 115.513938 57.801611 
L 116.911384 57.801611 
L 118.308829 57.801611 
L 119.706275 57.801611 
L 121.10372 57.801611 
L 122.501166 57.801611 
L 123.898611 57.801611 
L 125.296057 57.801611 
L 126.693502 57.801611 
L 128.090948 57.801611 
L 129.488393 57.801611 
L 130.885839 57.801611 
L 132.283284 57.801611 
L 133.68073 57.801611 
L 135.078175 57.801611 
L 136.475621 57.801611 
L 137.873067 57.801611 
L 139.270512 57.801611 
L 140.667958 57.801611 
L 142.065403 57.801611 
L 143.462849 57.801611 
L 144.860294 57.801611 
L 146.25774 57.801611 
L 147.655185 57.801611 
L 149.052631 57.801611 
L 150.450076 57.801611 
L 151.847522 57.801611 
L 153.244967 57.801611 
L 154.642413 57.801611 
L 156.039858 57.801611 
L 157.437304 57.801611 
L 158.834749 57.801611 
L 160.232195 57.801611 
L 161.629641 57.801611 
L 163.027086 57.801611 
L 164.424532 57.801611 
L 165.821977 57.801611 
L 167.219423 57.801611 
L 168.616868 57.801611 
L 170.014314 57.801611 
L 171.411759 57.801611 
L 172.809205 57.801611 
L 174.20665 57.801611 
" clip-path="url(#pfa2b96f8e8)" style="fill: none; stroke: #ff0000; stroke-width: 1.5; stroke-linecap: square"/>
   </g>
   <g id="patch_3">
    <path d="M 28.942188 106.036364 
L 28.942188 7.2 
" style="fill: none; stroke: #000000; stroke-width: 0.8; stroke-linejoin: miter; stroke-linecap: square"/>
   </g>
   <g id="patch_4">
    <path d="M 181.124006 106.036364 
L 181.124006 7.2 
" style="fill: none; stroke: #000000; stroke-width: 0.8; stroke-linejoin: miter; stroke-linecap: square"/>
   </g>
   <g id="patch_5">
    <path d="M 28.942188 106.036364 
L 181.124006 106.036364 
" style="fill: none; stroke: #000000; stroke-width: 0.8; stroke-linejoin: miter; stroke-linecap: square"/>
   </g>
   <g id="patch_6">
    <path d="M 28.942188 7.2 
L 181.124006 7.2 
" style="fill: none; stroke: #000000; stroke-width: 0.8; stroke-linejoin: miter; stroke-linecap: square"/>
   </g>
  </g>
  <g id="axes_2">
   <g id="patch_7">
    <path d="M 211.560369 106.036364 
L 363.742187 106.036364 
L 363.742187 7.2 
L 211.560369 7.2 
z
" style="fill: #ffffff"/>
   </g>
   <g id="PathCollection_2">
    <defs>
     <path id="C1_0_8f1d0b388a" d="M 0 3.535534 
C 0.937635 3.535534 1.836992 3.163008 2.5 2.5 
C 3.163008 1.836992 3.535534 0.937635 3.535534 -0 
C 3.535534 -0.937635 3.163008 -1.836992 2.5 -2.5 
C 1.836992 -3.163008 0.937635 -3.535534 0 -3.535534 
C -0.937635 -3.535534 -1.836992 -3.163008 -2.5 -2.5 
C -3.163008 -1.836992 -3.535534 -0.937635 -3.535534 0 
C -3.535534 0.937635 -3.163008 1.836992 -2.5 2.5 
C -1.836992 3.163008 -0.937635 3.535534 0 3.535534 
z
"/>
    </defs>
    <g clip-path="url(#p7a19405e27)">
     <use xlink:href="#C1_0_8f1d0b388a" x="218.477725" y="52.73527" style="fill: none; stroke: #0000ff"/>
    </g>
    <g clip-path="url(#p7a19405e27)">
     <use xlink:href="#C1_0_8f1d0b388a" x="233.849626" y="45.250561" style="fill: none; stroke: #0000ff"/>
    </g>
    <g clip-path="url(#p7a19405e27)">
     <use xlink:href="#C1_0_8f1d0b388a" x="249.221526" y="12.372947" style="fill: none; stroke: #0000ff"/>
    </g>
    <g clip-path="url(#p7a19405e27)">
     <use xlink:href="#C1_0_8f1d0b388a" x="264.593427" y="30.661696" style="fill: none; stroke: #0000ff"/>
    </g>
    <g clip-path="url(#p7a19405e27)">
     <use xlink:href="#C1_0_8f1d0b388a" x="279.965328" y="51.285204" style="fill: none; stroke: #0000ff"/>
    </g>
    <g clip-path="url(#p7a19405e27)">
     <use xlink:href="#C1_0_8f1d0b388a" x="295.337229" y="60.579194" style="fill: none; stroke: #0000ff"/>
    </g>
    <g clip-path="url(#p7a19405e27)">
     <use xlink:href="#C1_0_8f1d0b388a" x="310.70913" y="78.0699" style="fill: none; stroke: #0000ff"/>
    </g>
    <g clip-path="url(#p7a19405e27)">
     <use xlink:href="#C1_0_8f1d0b388a" x="326.08103" y="94.30576" style="fill: none; stroke: #0000ff"/>
    </g>
    <g clip-path="url(#p7a19405e27)">
     <use xlink:href="#C1_0_8f1d0b388a" x="341.452931" y="77.665831" style="fill: none; stroke: #0000ff"/>
    </g>
    <g clip-path="url(#p7a19405e27)">
     <use xlink:href="#C1_0_8f1d0b388a" x="356.824832" y="75.089751" style="fill: none; stroke: #0000ff"/>
    </g>
   </g>
   <g id="matplotlib.axis_3">
    <g id="xtick_6">
     <g id="line2d_11">
      <g>
       <use xlink:href="#m7cca66c236" x="218.477725" y="106.036364" style="stroke: #000000; stroke-width: 0.8"/>
      </g>
     </g>
     <g id="text_9">
      <!-- 0.00 -->
      <g transform="translate(207.344912 120.634801)scale(0.1 -0.1)">
       <use xlink:href="#DejaVuSans-30"/>
       <use xlink:href="#DejaVuSans-2e" x="63.623047"/>
       <use xlink:href="#DejaVuSans-30" x="95.410156"/>
       <use xlink:href="#DejaVuSans-30" x="159.033203"/>
      </g>
     </g>
    </g>
    <g id="xtick_7">
     <g id="line2d_12">
      <g>
       <use xlink:href="#m7cca66c236" x="253.064502" y="106.036364" style="stroke: #000000; stroke-width: 0.8"/>
      </g>
     </g>
     <g id="text_10">
      <!-- 0.25 -->
      <g transform="translate(241.931689 120.634801)scale(0.1 -0.1)">
       <use xlink:href="#DejaVuSans-30"/>
       <use xlink:href="#DejaVuSans-2e" x="63.623047"/>
       <use xlink:href="#DejaVuSans-32" x="95.410156"/>
       <use xlink:href="#DejaVuSans-35" x="159.033203"/>
      </g>
     </g>
    </g>
    <g id="xtick_8">
     <g id="line2d_13">
      <g>
       <use xlink:href="#m7cca66c236" x="287.651278" y="106.036364" style="stroke: #000000; stroke-width: 0.8"/>
      </g>
     </g>
     <g id="text_11">
      <!-- 0.50 -->
      <g transform="translate(276.518466 120.634801)scale(0.1 -0.1)">
       <use xlink:href="#DejaVuSans-30"/>
       <use xlink:href="#DejaVuSans-2e" x="63.623047"/>
       <use xlink:href="#DejaVuSans-35" x="95.410156"/>
       <use xlink:href="#DejaVuSans-30" x="159.033203"/>
      </g>
     </g>
    </g>
    <g id="xtick_9">
     <g id="line2d_14">
      <g>
       <use xlink:href="#m7cca66c236" x="322.238055" y="106.036364" style="stroke: #000000; stroke-width: 0.8"/>
      </g>
     </g>
     <g id="text_12">
      <!-- 0.75 -->
      <g transform="translate(311.105243 120.634801)scale(0.1 -0.1)">
       <use xlink:href="#DejaVuSans-30"/>
       <use xlink:href="#DejaVuSans-2e" x="63.623047"/>
       <use xlink:href="#DejaVuSans-37" x="95.410156"/>
       <use xlink:href="#DejaVuSans-35" x="159.033203"/>
      </g>
     </g>
    </g>
    <g id="xtick_10">
     <g id="line2d_15">
      <g>
       <use xlink:href="#m7cca66c236" x="356.824832" y="106.036364" style="stroke: #000000; stroke-width: 0.8"/>
      </g>
     </g>
     <g id="text_13">
      <!-- 1.00 -->
      <g transform="translate(345.69202 120.634801)scale(0.1 -0.1)">
       <use xlink:href="#DejaVuSans-31"/>
       <use xlink:href="#DejaVuSans-2e" x="63.623047"/>
       <use xlink:href="#DejaVuSans-30" x="95.410156"/>
       <use xlink:href="#DejaVuSans-30" x="159.033203"/>
      </g>
     </g>
    </g>
   </g>
   <g id="matplotlib.axis_4">
    <g id="ytick_4">
     <g id="line2d_16">
      <g>
       <use xlink:href="#mc14c08d2ba" x="211.560369" y="89.563636" style="stroke: #000000; stroke-width: 0.8"/>
      </g>
     </g>
     <g id="text_14">
      <!-- −1 -->
      <g transform="translate(189.818182 93.362855)scale(0.1 -0.1)">
       <use xlink:href="#DejaVuSans-2212"/>
       <use xlink:href="#DejaVuSans-31" x="83.789062"/>
      </g>
     </g>
    </g>
    <g id="ytick_5">
     <g id="line2d_17">
      <g>
       <use xlink:href="#mc14c08d2ba" x="211.560369" y="56.618182" style="stroke: #000000; stroke-width: 0.8"/>
      </g>
     </g>
     <g id="text_15">
      <!-- 0 -->
      <g transform="translate(198.197869 60.417401)scale(0.1 -0.1)">
       <use xlink:href="#DejaVuSans-30"/>
      </g>
     </g>
    </g>
    <g id="ytick_6">
     <g id="line2d_18">
      <g>
       <use xlink:href="#mc14c08d2ba" x="211.560369" y="23.672727" style="stroke: #000000; stroke-width: 0.8"/>
      </g>
     </g>
     <g id="text_16">
      <!-- 1 -->
      <g transform="translate(198.197869 27.471946)scale(0.1 -0.1)">
       <use xlink:href="#DejaVuSans-31"/>
      </g>
     </g>
    </g>
   </g>
   <g id="line2d_19">
    <path d="M 218.477725 56.618182 
L 219.87517 54.528652 
L 221.272616 52.447536 
L 222.670061 50.383214 
L 224.067507 48.343997 
L 225.464952 46.338098 
L 226.862398 44.373593 
L 228.259843 42.458393 
L 229.657289 40.600209 
L 231.054734 38.806524 
L 232.45218 37.084561 
L 233.849626 35.441252 
L 235.247071 33.883215 
L 236.644517 32.416724 
L 238.041962 31.047684 
L 239.439408 29.781607 
L 240.836853 28.623591 
L 242.234299 27.5783 
L 243.631744 26.649942 
L 245.02919 25.842256 
L 246.426635 25.158493 
L 247.824081 24.601408 
L 249.221526 24.173243 
L 250.618972 23.875722 
L 252.016417 23.710043 
L 253.413863 23.676874 
L 254.811308 23.776348 
L 256.208754 24.008064 
L 257.6062 24.37109 
L 259.003645 24.863964 
L 260.401091 25.4847 
L 261.798536 26.2308 
L 263.195982 27.09926 
L 264.593427 28.086581 
L 265.990873 29.18879 
L 267.388318 30.401446 
L 268.785764 31.719669 
L 270.183209 33.138148 
L 271.580655 34.651174 
L 272.9781 36.252653 
L 274.375546 37.936137 
L 275.772991 39.694847 
L 277.170437 41.521701 
L 278.567882 43.409343 
L 279.965328 45.350173 
L 281.362774 47.336375 
L 282.760219 49.359951 
L 284.157665 51.412754 
L 285.55511 53.486517 
L 286.952556 55.572891 
L 288.350001 57.663473 
L 289.747447 59.749846 
L 291.144892 61.82361 
L 292.542338 63.876412 
L 293.939783 65.899989 
L 295.337229 67.886191 
L 296.734674 69.827021 
L 298.13212 71.714663 
L 299.529565 73.541517 
L 300.927011 75.300227 
L 302.324456 76.983711 
L 303.721902 78.58519 
L 305.119348 80.098215 
L 306.516793 81.516695 
L 307.914239 82.834917 
L 309.311684 84.047574 
L 310.70913 85.149782 
L 312.106575 86.137104 
L 313.504021 87.005563 
L 314.901466 87.751663 
L 316.298912 88.3724 
L 317.696357 88.865273 
L 319.093803 89.228299 
L 320.491248 89.460016 
L 321.888694 89.559489 
L 323.286139 89.52632 
L 324.683585 89.360642 
L 326.08103 89.063121 
L 327.478476 88.634956 
L 328.875922 88.07787 
L 330.273367 87.394108 
L 331.670813 86.586421 
L 333.068258 85.658064 
L 334.465704 84.612772 
L 335.863149 83.454757 
L 337.260595 82.18868 
L 338.65804 80.81964 
L 340.055486 79.353149 
L 341.452931 77.795112 
L 342.850377 76.151803 
L 344.247822 74.429839 
L 345.645268 72.636154 
L 347.042713 70.777971 
L 348.440159 68.86277 
L 349.837604 66.898266 
L 351.23505 64.892366 
L 352.632496 62.85315 
L 354.029941 60.788828 
L 355.427387 58.707712 
L 356.824832 56.618182 
" clip-path="url(#p7a19405e27)" style="fill: none; stroke: #008000; stroke-width: 1.5; stroke-linecap: square"/>
   </g>
   <g id="line2d_20">
    <path d="M 218.477725 30.821251 
L 219.87517 31.366309 
L 221.272616 31.911367 
L 222.670061 32.456424 
L 224.067507 33.001482 
L 225.464952 33.54654 
L 226.862398 34.091598 
L 228.259843 34.636655 
L 229.657289 35.181713 
L 231.054734 35.726771 
L 232.45218 36.271829 
L 233.849626 36.816887 
L 235.247071 37.361944 
L 236.644517 37.907002 
L 238.041962 38.45206 
L 239.439408 38.997118 
L 240.836853 39.542176 
L 242.234299 40.087233 
L 243.631744 40.632291 
L 245.02919 41.177349 
L 246.426635 41.722407 
L 247.824081 42.267464 
L 249.221526 42.812522 
L 250.618972 43.35758 
L 252.016417 43.902638 
L 253.413863 44.447696 
L 254.811308 44.992753 
L 256.208754 45.537811 
L 257.6062 46.082869 
L 259.003645 46.627927 
L 260.401091 47.172985 
L 261.798536 47.718042 
L 263.195982 48.2631 
L 264.593427 48.808158 
L 265.990873 49.353216 
L 267.388318 49.898273 
L 268.785764 50.443331 
L 270.183209 50.988389 
L 271.580655 51.533447 
L 272.9781 52.078505 
L 274.375546 52.623562 
L 275.772991 53.16862 
L 277.170437 53.713678 
L 278.567882 54.258736 
L 279.965328 54.803793 
L 281.362774 55.348851 
L 282.760219 55.893909 
L 284.157665 56.438967 
L 285.55511 56.984025 
L 286.952556 57.529082 
L 288.350001 58.07414 
L 289.747447 58.619198 
L 291.144892 59.164256 
L 292.542338 59.709314 
L 293.939783 60.254371 
L 295.337229 60.799429 
L 296.734674 61.344487 
L 298.13212 61.889545 
L 299.529565 62.434602 
L 300.927011 62.97966 
L 302.324456 63.524718 
L 303.721902 64.069776 
L 305.119348 64.614834 
L 306.516793 65.159891 
L 307.914239 65.704949 
L 309.311684 66.250007 
L 310.70913 66.795065 
L 312.106575 67.340123 
L 313.504021 67.88518 
L 314.901466 68.430238 
L 316.298912 68.975296 
L 317.696357 69.520354 
L 319.093803 70.065411 
L 320.491248 70.610469 
L 321.888694 71.155527 
L 323.286139 71.700585 
L 324.683585 72.245643 
L 326.08103 72.7907 
L 327.478476 73.335758 
L 328.875922 73.880816 
L 330.273367 74.425874 
L 331.670813 74.970932 
L 333.068258 75.515989 
L 334.465704 76.061047 
L 335.863149 76.606105 
L 337.260595 77.151163 
L 338.65804 77.69622 
L 340.055486 78.241278 
L 341.452931 78.786336 
L 342.850377 79.331394 
L 344.247822 79.876452 
L 345.645268 80.421509 
L 347.042713 80.966567 
L 348.440159 81.511625 
L 349.837604 82.056683 
L 351.23505 82.60174 
L 352.632496 83.146798 
L 354.029941 83.691856 
L 355.427387 84.236914 
L 356.824832 84.781972 
" clip-path="url(#p7a19405e27)" style="fill: none; stroke: #ff0000; stroke-width: 1.5; stroke-linecap: square"/>
   </g>
   <g id="patch_8">
    <path d="M 211.560369 106.036364 
L 211.560369 7.2 
" style="fill: none; stroke: #000000; stroke-width: 0.8; stroke-linejoin: miter; stroke-linecap: square"/>
   </g>
   <g id="patch_9">
    <path d="M 363.742187 106.036364 
L 363.742187 7.2 
" style="fill: none; stroke: #000000; stroke-width: 0.8; stroke-linejoin: miter; stroke-linecap: square"/>
   </g>
   <g id="patch_10">
    <path d="M 211.560369 106.036364 
L 363.742188 106.036364 
" style="fill: none; stroke: #000000; stroke-width: 0.8; stroke-linejoin: miter; stroke-linecap: square"/>
   </g>
   <g id="patch_11">
    <path d="M 211.560369 7.2 
L 363.742188 7.2 
" style="fill: none; stroke: #000000; stroke-width: 0.8; stroke-linejoin: miter; stroke-linecap: square"/>
   </g>
  </g>
  <g id="axes_3">
   <g id="patch_12">
    <path d="M 28.942188 224.64 
L 181.124006 224.64 
L 181.124006 125.803636 
L 28.942188 125.803636 
z
" style="fill: #ffffff"/>
   </g>
   <g id="PathCollection_3">
    <defs>
     <path id="C2_0_42c3157a1b" d="M 0 3.535534 
C 0.937635 3.535534 1.836992 3.163008 2.5 2.5 
C 3.163008 1.836992 3.535534 0.937635 3.535534 -0 
C 3.535534 -0.937635 3.163008 -1.836992 2.5 -2.5 
C 1.836992 -3.163008 0.937635 -3.535534 0 -3.535534 
C -0.937635 -3.535534 -1.836992 -3.163008 -2.5 -2.5 
C -3.163008 -1.836992 -3.535534 -0.937635 -3.535534 0 
C -3.535534 0.937635 -3.163008 1.836992 -2.5 2.5 
C -1.836992 3.163008 -0.937635 3.535534 0 3.535534 
z
"/>
    </defs>
    <g clip-path="url(#pa94a3aa810)">
     <use xlink:href="#C2_0_42c3157a1b" x="35.859543" y="171.338907" style="fill: none; stroke: #0000ff"/>
    </g>
    <g clip-path="url(#pa94a3aa810)">
     <use xlink:href="#C2_0_42c3157a1b" x="51.231444" y="163.854197" style="fill: none; stroke: #0000ff"/>
    </g>
    <g clip-path="url(#pa94a3aa810)">
     <use xlink:href="#C2_0_42c3157a1b" x="66.603345" y="130.976584" style="fill: none; stroke: #0000ff"/>
    </g>
    <g clip-path="url(#pa94a3aa810)">
     <use xlink:href="#C2_0_42c3157a1b" x="81.975245" y="149.265332" style="fill: none; stroke: #0000ff"/>
    </g>
    <g clip-path="url(#pa94a3aa810)">
     <use xlink:href="#C2_0_42c3157a1b" x="97.347146" y="169.88884" style="fill: none; stroke: #0000ff"/>
    </g>
    <g clip-path="url(#pa94a3aa810)">
     <use xlink:href="#C2_0_42c3157a1b" x="112.719047" y="179.182831" style="fill: none; stroke: #0000ff"/>
    </g>
    <g clip-path="url(#pa94a3aa810)">
     <use xlink:href="#C2_0_42c3157a1b" x="128.090948" y="196.673536" style="fill: none; stroke: #0000ff"/>
    </g>
    <g clip-path="url(#pa94a3aa810)">
     <use xlink:href="#C2_0_42c3157a1b" x="143.462849" y="212.909396" style="fill: none; stroke: #0000ff"/>
    </g>
    <g clip-path="url(#pa94a3aa810)">
     <use xlink:href="#C2_0_42c3157a1b" x="158.834749" y="196.269467" style="fill: none; stroke: #0000ff"/>
    </g>
    <g clip-path="url(#pa94a3aa810)">
     <use xlink:href="#C2_0_42c3157a1b" x="174.20665" y="193.693387" style="fill: none; stroke: #0000ff"/>
    </g>
   </g>
   <g id="matplotlib.axis_5">
    <g id="xtick_11">
     <g id="line2d_21">
      <g>
       <use xlink:href="#m7cca66c236" x="35.859543" y="224.64" style="stroke: #000000; stroke-width: 0.8"/>
      </g>
     </g>
     <g id="text_17">
      <!-- 0.00 -->
      <g transform="translate(24.72673 239.238437)scale(0.1 -0.1)">
       <use xlink:href="#DejaVuSans-30"/>
       <use xlink:href="#DejaVuSans-2e" x="63.623047"/>
       <use xlink:href="#DejaVuSans-30" x="95.410156"/>
       <use xlink:href="#DejaVuSans-30" x="159.033203"/>
      </g>
     </g>
    </g>
    <g id="xtick_12">
     <g id="line2d_22">
      <g>
       <use xlink:href="#m7cca66c236" x="70.44632" y="224.64" style="stroke: #000000; stroke-width: 0.8"/>
      </g>
     </g>
     <g id="text_18">
      <!-- 0.25 -->
      <g transform="translate(59.313507 239.238437)scale(0.1 -0.1)">
       <use xlink:href="#DejaVuSans-30"/>
       <use xlink:href="#DejaVuSans-2e" x="63.623047"/>
       <use xlink:href="#DejaVuSans-32" x="95.410156"/>
       <use xlink:href="#DejaVuSans-35" x="159.033203"/>
      </g>
     </g>
    </g>
    <g id="xtick_13">
     <g id="line2d_23">
      <g>
       <use xlink:href="#m7cca66c236" x="105.033097" y="224.64" style="stroke: #000000; stroke-width: 0.8"/>
      </g>
     </g>
     <g id="text_19">
      <!-- 0.50 -->
      <g transform="translate(93.900284 239.238437)scale(0.1 -0.1)">
       <use xlink:href="#DejaVuSans-30"/>
       <use xlink:href="#DejaVuSans-2e" x="63.623047"/>
       <use xlink:href="#DejaVuSans-35" x="95.410156"/>
       <use xlink:href="#DejaVuSans-30" x="159.033203"/>
      </g>
     </g>
    </g>
    <g id="xtick_14">
     <g id="line2d_24">
      <g>
       <use xlink:href="#m7cca66c236" x="139.619873" y="224.64" style="stroke: #000000; stroke-width: 0.8"/>
      </g>
     </g>
     <g id="text_20">
      <!-- 0.75 -->
      <g transform="translate(128.487061 239.238437)scale(0.1 -0.1)">
       <use xlink:href="#DejaVuSans-30"/>
       <use xlink:href="#DejaVuSans-2e" x="63.623047"/>
       <use xlink:href="#DejaVuSans-37" x="95.410156"/>
       <use xlink:href="#DejaVuSans-35" x="159.033203"/>
      </g>
     </g>
    </g>
    <g id="xtick_15">
     <g id="line2d_25">
      <g>
       <use xlink:href="#m7cca66c236" x="174.20665" y="224.64" style="stroke: #000000; stroke-width: 0.8"/>
      </g>
     </g>
     <g id="text_21">
      <!-- 1.00 -->
      <g transform="translate(163.073838 239.238437)scale(0.1 -0.1)">
       <use xlink:href="#DejaVuSans-31"/>
       <use xlink:href="#DejaVuSans-2e" x="63.623047"/>
       <use xlink:href="#DejaVuSans-30" x="95.410156"/>
       <use xlink:href="#DejaVuSans-30" x="159.033203"/>
      </g>
     </g>
    </g>
   </g>
   <g id="matplotlib.axis_6">
    <g id="ytick_7">
     <g id="line2d_26">
      <g>
       <use xlink:href="#mc14c08d2ba" x="28.942188" y="208.167273" style="stroke: #000000; stroke-width: 0.8"/>
      </g>
     </g>
     <g id="text_22">
      <!-- −1 -->
      <g transform="translate(7.2 211.966491)scale(0.1 -0.1)">
       <use xlink:href="#DejaVuSans-2212"/>
       <use xlink:href="#DejaVuSans-31" x="83.789062"/>
      </g>
     </g>
    </g>
    <g id="ytick_8">
     <g id="line2d_27">
      <g>
       <use xlink:href="#mc14c08d2ba" x="28.942188" y="175.221818" style="stroke: #000000; stroke-width: 0.8"/>
      </g>
     </g>
     <g id="text_23">
      <!-- 0 -->
      <g transform="translate(15.579688 179.021037)scale(0.1 -0.1)">
       <use xlink:href="#DejaVuSans-30"/>
      </g>
     </g>
    </g>
    <g id="ytick_9">
     <g id="line2d_28">
      <g>
       <use xlink:href="#mc14c08d2ba" x="28.942188" y="142.276364" style="stroke: #000000; stroke-width: 0.8"/>
      </g>
     </g>
     <g id="text_24">
      <!-- 1 -->
      <g transform="translate(15.579688 146.075582)scale(0.1 -0.1)">
       <use xlink:href="#DejaVuSans-31"/>
      </g>
     </g>
    </g>
   </g>
   <g id="line2d_29">
    <path d="M 35.859543 175.221818 
L 37.256988 173.132288 
L 38.654434 171.051172 
L 40.051879 168.98685 
L 41.449325 166.947634 
L 42.846771 164.941734 
L 44.244216 162.97723 
L 45.641662 161.062029 
L 47.039107 159.203846 
L 48.436553 157.410161 
L 49.833998 155.688197 
L 51.231444 154.044888 
L 52.628889 152.486851 
L 54.026335 151.02036 
L 55.42378 149.65132 
L 56.821226 148.385243 
L 58.218671 147.227228 
L 59.616117 146.181936 
L 61.013562 145.253579 
L 62.411008 144.445892 
L 63.808453 143.76213 
L 65.205899 143.205044 
L 66.603345 142.776879 
L 68.00079 142.479358 
L 69.398236 142.31368 
L 70.795681 142.280511 
L 72.193127 142.379984 
L 73.590572 142.611701 
L 74.988018 142.974727 
L 76.385463 143.4676 
L 77.782909 144.088337 
L 79.180354 144.834437 
L 80.5778 145.702896 
L 81.975245 146.690218 
L 83.372691 147.792426 
L 84.770136 149.005083 
L 86.167582 150.323305 
L 87.565027 151.741785 
L 88.962473 153.25481 
L 90.359919 154.856289 
L 91.757364 156.539773 
L 93.15481 158.298483 
L 94.552255 160.125337 
L 95.949701 162.012979 
L 97.347146 163.953809 
L 98.744592 165.940011 
L 100.142037 167.963588 
L 101.539483 170.01639 
L 102.936928 172.090154 
L 104.334374 174.176527 
L 105.731819 176.267109 
L 107.129265 178.353483 
L 108.52671 180.427246 
L 109.924156 182.480049 
L 111.321601 184.503625 
L 112.719047 186.489827 
L 114.116493 188.430657 
L 115.513938 190.318299 
L 116.911384 192.145153 
L 118.308829 193.903863 
L 119.706275 195.587347 
L 121.10372 197.188826 
L 122.501166 198.701852 
L 123.898611 200.120331 
L 125.296057 201.438554 
L 126.693502 202.65121 
L 128.090948 203.753419 
L 129.488393 204.74074 
L 130.885839 205.6092 
L 132.283284 206.3553 
L 133.68073 206.976036 
L 135.078175 207.46891 
L 136.475621 207.831936 
L 137.873067 208.063652 
L 139.270512 208.163126 
L 140.667958 208.129957 
L 142.065403 207.964278 
L 143.462849 207.666757 
L 144.860294 207.238592 
L 146.25774 206.681507 
L 147.655185 205.997744 
L 149.052631 205.190058 
L 150.450076 204.2617 
L 151.847522 203.216409 
L 153.244967 202.058393 
L 154.642413 200.792316 
L 156.039858 199.423276 
L 157.437304 197.956785 
L 158.834749 196.398748 
L 160.232195 194.755439 
L 161.629641 193.033476 
L 163.027086 191.239791 
L 164.424532 189.381607 
L 165.821977 187.466407 
L 167.219423 185.501902 
L 168.616868 183.496003 
L 170.014314 181.456786 
L 171.411759 179.392464 
L 172.809205 177.311348 
L 174.20665 175.221818 
" clip-path="url(#pa94a3aa810)" style="fill: none; stroke: #008000; stroke-width: 1.5; stroke-linecap: square"/>
   </g>
   <g id="line2d_30">
    <path d="M 35.859543 174.848427 
L 37.256988 171.845632 
L 38.654434 169.019469 
L 40.051879 166.366465 
L 41.449325 163.883151 
L 42.846771 161.566056 
L 44.244216 159.411708 
L 45.641662 157.416637 
L 47.039107 155.577371 
L 48.436553 153.890441 
L 49.833998 152.352374 
L 51.231444 150.959701 
L 52.628889 149.70895 
L 54.026335 148.596651 
L 55.42378 147.619331 
L 56.821226 146.773522 
L 58.218671 146.055751 
L 59.616117 145.462548 
L 61.013562 144.990441 
L 62.411008 144.635961 
L 63.808453 144.395636 
L 65.205899 144.265995 
L 66.603345 144.243567 
L 68.00079 144.324881 
L 69.398236 144.506467 
L 70.795681 144.784854 
L 72.193127 145.156571 
L 73.590572 145.618146 
L 74.988018 146.166109 
L 76.385463 146.796989 
L 77.782909 147.507315 
L 79.180354 148.293617 
L 80.5778 149.152422 
L 81.975245 150.080262 
L 83.372691 151.073663 
L 84.770136 152.129157 
L 86.167582 153.243271 
L 87.565027 154.412535 
L 88.962473 155.633478 
L 90.359919 156.902629 
L 91.757364 158.216517 
L 93.15481 159.571671 
L 94.552255 160.964621 
L 95.949701 162.391895 
L 97.347146 163.850023 
L 98.744592 165.335534 
L 100.142037 166.844956 
L 101.539483 168.374819 
L 102.936928 169.921652 
L 104.334374 171.481985 
L 105.731819 173.052345 
L 107.129265 174.629263 
L 108.52671 176.209267 
L 109.924156 177.788887 
L 111.321601 179.364651 
L 112.719047 180.933089 
L 114.116493 182.49073 
L 115.513938 184.034103 
L 116.911384 185.559736 
L 118.308829 187.06416 
L 119.706275 188.543903 
L 121.10372 189.995495 
L 122.501166 191.415464 
L 123.898611 192.800339 
L 125.296057 194.146651 
L 126.693502 195.450926 
L 128.090948 196.709696 
L 129.488393 197.919489 
L 130.885839 199.076834 
L 132.283284 200.17826 
L 133.68073 201.220296 
L 135.078175 202.199472 
L 136.475621 203.112316 
L 137.873067 203.955358 
L 139.270512 204.725126 
L 140.667958 205.41815 
L 142.065403 206.03096 
L 143.462849 206.560083 
L 144.860294 207.002049 
L 146.25774 207.353387 
L 147.655185 207.610627 
L 149.052631 207.770298 
L 150.450076 207.828927 
L 151.847522 207.783046 
L 153.244967 207.629182 
L 154.642413 207.363865 
L 156.039858 206.983624 
L 157.437304 206.484988 
L 158.834749 205.864486 
L 160.232195 205.118647 
L 161.629641 204.244001 
L 163.027086 203.237076 
L 164.424532 202.094402 
L 165.821977 200.812507 
L 167.219423 199.387921 
L 168.616868 197.817174 
L 170.014314 196.096793 
L 171.411759 194.223308 
L 172.809205 192.193248 
L 174.20665 190.003143 
" clip-path="url(#pa94a3aa810)" style="fill: none; stroke: #ff0000; stroke-width: 1.5; stroke-linecap: square"/>
   </g>
   <g id="patch_13">
    <path d="M 28.942188 224.64 
L 28.942188 125.803636 
" style="fill: none; stroke: #000000; stroke-width: 0.8; stroke-linejoin: miter; stroke-linecap: square"/>
   </g>
   <g id="patch_14">
    <path d="M 181.124006 224.64 
L 181.124006 125.803636 
" style="fill: none; stroke: #000000; stroke-width: 0.8; stroke-linejoin: miter; stroke-linecap: square"/>
   </g>
   <g id="patch_15">
    <path d="M 28.942188 224.64 
L 181.124006 224.64 
" style="fill: none; stroke: #000000; stroke-width: 0.8; stroke-linejoin: miter; stroke-linecap: square"/>
   </g>
   <g id="patch_16">
    <path d="M 28.942188 125.803636 
L 181.124006 125.803636 
" style="fill: none; stroke: #000000; stroke-width: 0.8; stroke-linejoin: miter; stroke-linecap: square"/>
   </g>
  </g>
  <g id="axes_4">
   <g id="patch_17">
    <path d="M 211.560369 224.64 
L 363.742187 224.64 
L 363.742187 125.803636 
L 211.560369 125.803636 
z
" style="fill: #ffffff"/>
   </g>
   <g id="PathCollection_4">
    <defs>
     <path id="C3_0_493c3dcc25" d="M 0 3.535534 
C 0.937635 3.535534 1.836992 3.163008 2.5 2.5 
C 3.163008 1.836992 3.535534 0.937635 3.535534 -0 
C 3.535534 -0.937635 3.163008 -1.836992 2.5 -2.5 
C 1.836992 -3.163008 0.937635 -3.535534 0 -3.535534 
C -0.937635 -3.535534 -1.836992 -3.163008 -2.5 -2.5 
C -3.163008 -1.836992 -3.535534 -0.937635 -3.535534 0 
C -3.535534 0.937635 -3.163008 1.836992 -2.5 2.5 
C -1.836992 3.163008 -0.937635 3.535534 0 3.535534 
z
"/>
    </defs>
    <g clip-path="url(#p4646264aef)">
     <use xlink:href="#C3_0_493c3dcc25" x="218.477725" y="171.338907" style="fill: none; stroke: #0000ff"/>
    </g>
    <g clip-path="url(#p4646264aef)">
     <use xlink:href="#C3_0_493c3dcc25" x="233.849626" y="163.854197" style="fill: none; stroke: #0000ff"/>
    </g>
    <g clip-path="url(#p4646264aef)">
     <use xlink:href="#C3_0_493c3dcc25" x="249.221526" y="130.976584" style="fill: none; stroke: #0000ff"/>
    </g>
    <g clip-path="url(#p4646264aef)">
     <use xlink:href="#C3_0_493c3dcc25" x="264.593427" y="149.265332" style="fill: none; stroke: #0000ff"/>
    </g>
    <g clip-path="url(#p4646264aef)">
     <use xlink:href="#C3_0_493c3dcc25" x="279.965328" y="169.88884" style="fill: none; stroke: #0000ff"/>
    </g>
    <g clip-path="url(#p4646264aef)">
     <use xlink:href="#C3_0_493c3dcc25" x="295.337229" y="179.182831" style="fill: none; stroke: #0000ff"/>
    </g>
    <g clip-path="url(#p4646264aef)">
     <use xlink:href="#C3_0_493c3dcc25" x="310.70913" y="196.673536" style="fill: none; stroke: #0000ff"/>
    </g>
    <g clip-path="url(#p4646264aef)">
     <use xlink:href="#C3_0_493c3dcc25" x="326.08103" y="212.909396" style="fill: none; stroke: #0000ff"/>
    </g>
    <g clip-path="url(#p4646264aef)">
     <use xlink:href="#C3_0_493c3dcc25" x="341.452931" y="196.269467" style="fill: none; stroke: #0000ff"/>
    </g>
    <g clip-path="url(#p4646264aef)">
     <use xlink:href="#C3_0_493c3dcc25" x="356.824832" y="193.693387" style="fill: none; stroke: #0000ff"/>
    </g>
   </g>
   <g id="matplotlib.axis_7">
    <g id="xtick_16">
     <g id="line2d_31">
      <g>
       <use xlink:href="#m7cca66c236" x="218.477725" y="224.64" style="stroke: #000000; stroke-width: 0.8"/>
      </g>
     </g>
     <g id="text_25">
      <!-- 0.00 -->
      <g transform="translate(207.344912 239.238437)scale(0.1 -0.1)">
       <use xlink:href="#DejaVuSans-30"/>
       <use xlink:href="#DejaVuSans-2e" x="63.623047"/>
       <use xlink:href="#DejaVuSans-30" x="95.410156"/>
       <use xlink:href="#DejaVuSans-30" x="159.033203"/>
      </g>
     </g>
    </g>
    <g id="xtick_17">
     <g id="line2d_32">
      <g>
       <use xlink:href="#m7cca66c236" x="253.064502" y="224.64" style="stroke: #000000; stroke-width: 0.8"/>
      </g>
     </g>
     <g id="text_26">
      <!-- 0.25 -->
      <g transform="translate(241.931689 239.238437)scale(0.1 -0.1)">
       <use xlink:href="#DejaVuSans-30"/>
       <use xlink:href="#DejaVuSans-2e" x="63.623047"/>
       <use xlink:href="#DejaVuSans-32" x="95.410156"/>
       <use xlink:href="#DejaVuSans-35" x="159.033203"/>
      </g>
     </g>
    </g>
    <g id="xtick_18">
     <g id="line2d_33">
      <g>
       <use xlink:href="#m7cca66c236" x="287.651278" y="224.64" style="stroke: #000000; stroke-width: 0.8"/>
      </g>
     </g>
     <g id="text_27">
      <!-- 0.50 -->
      <g transform="translate(276.518466 239.238437)scale(0.1 -0.1)">
       <use xlink:href="#DejaVuSans-30"/>
       <use xlink:href="#DejaVuSans-2e" x="63.623047"/>
       <use xlink:href="#DejaVuSans-35" x="95.410156"/>
       <use xlink:href="#DejaVuSans-30" x="159.033203"/>
      </g>
     </g>
    </g>
    <g id="xtick_19">
     <g id="line2d_34">
      <g>
       <use xlink:href="#m7cca66c236" x="322.238055" y="224.64" style="stroke: #000000; stroke-width: 0.8"/>
      </g>
     </g>
     <g id="text_28">
      <!-- 0.75 -->
      <g transform="translate(311.105243 239.238437)scale(0.1 -0.1)">
       <use xlink:href="#DejaVuSans-30"/>
       <use xlink:href="#DejaVuSans-2e" x="63.623047"/>
       <use xlink:href="#DejaVuSans-37" x="95.410156"/>
       <use xlink:href="#DejaVuSans-35" x="159.033203"/>
      </g>
     </g>
    </g>
    <g id="xtick_20">
     <g id="line2d_35">
      <g>
       <use xlink:href="#m7cca66c236" x="356.824832" y="224.64" style="stroke: #000000; stroke-width: 0.8"/>
      </g>
     </g>
     <g id="text_29">
      <!-- 1.00 -->
      <g transform="translate(345.69202 239.238437)scale(0.1 -0.1)">
       <use xlink:href="#DejaVuSans-31"/>
       <use xlink:href="#DejaVuSans-2e" x="63.623047"/>
       <use xlink:href="#DejaVuSans-30" x="95.410156"/>
       <use xlink:href="#DejaVuSans-30" x="159.033203"/>
      </g>
     </g>
    </g>
   </g>
   <g id="matplotlib.axis_8">
    <g id="ytick_10">
     <g id="line2d_36">
      <g>
       <use xlink:href="#mc14c08d2ba" x="211.560369" y="208.167273" style="stroke: #000000; stroke-width: 0.8"/>
      </g>
     </g>
     <g id="text_30">
      <!-- −1 -->
      <g transform="translate(189.818182 211.966491)scale(0.1 -0.1)">
       <use xlink:href="#DejaVuSans-2212"/>
       <use xlink:href="#DejaVuSans-31" x="83.789062"/>
      </g>
     </g>
    </g>
    <g id="ytick_11">
     <g id="line2d_37">
      <g>
       <use xlink:href="#mc14c08d2ba" x="211.560369" y="175.221818" style="stroke: #000000; stroke-width: 0.8"/>
      </g>
     </g>
     <g id="text_31">
      <!-- 0 -->
      <g transform="translate(198.197869 179.021037)scale(0.1 -0.1)">
       <use xlink:href="#DejaVuSans-30"/>
      </g>
     </g>
    </g>
    <g id="ytick_12">
     <g id="line2d_38">
      <g>
       <use xlink:href="#mc14c08d2ba" x="211.560369" y="142.276364" style="stroke: #000000; stroke-width: 0.8"/>
      </g>
     </g>
     <g id="text_32">
      <!-- 1 -->
      <g transform="translate(198.197869 146.075582)scale(0.1 -0.1)">
       <use xlink:href="#DejaVuSans-31"/>
      </g>
     </g>
    </g>
   </g>
   <g id="line2d_39">
    <path d="M 218.477725 175.221818 
L 219.87517 173.132288 
L 221.272616 171.051172 
L 222.670061 168.98685 
L 224.067507 166.947634 
L 225.464952 164.941734 
L 226.862398 162.97723 
L 228.259843 161.062029 
L 229.657289 159.203846 
L 231.054734 157.410161 
L 232.45218 155.688197 
L 233.849626 154.044888 
L 235.247071 152.486851 
L 236.644517 151.02036 
L 238.041962 149.65132 
L 239.439408 148.385243 
L 240.836853 147.227228 
L 242.234299 146.181936 
L 243.631744 145.253579 
L 245.02919 144.445892 
L 246.426635 143.76213 
L 247.824081 143.205044 
L 249.221526 142.776879 
L 250.618972 142.479358 
L 252.016417 142.31368 
L 253.413863 142.280511 
L 254.811308 142.379984 
L 256.208754 142.611701 
L 257.6062 142.974727 
L 259.003645 143.4676 
L 260.401091 144.088337 
L 261.798536 144.834437 
L 263.195982 145.702896 
L 264.593427 146.690218 
L 265.990873 147.792426 
L 267.388318 149.005083 
L 268.785764 150.323305 
L 270.183209 151.741785 
L 271.580655 153.25481 
L 272.9781 154.856289 
L 274.375546 156.539773 
L 275.772991 158.298483 
L 277.170437 160.125337 
L 278.567882 162.012979 
L 279.965328 163.953809 
L 281.362774 165.940011 
L 282.760219 167.963588 
L 284.157665 170.01639 
L 285.55511 172.090154 
L 286.952556 174.176527 
L 288.350001 176.267109 
L 289.747447 178.353483 
L 291.144892 180.427246 
L 292.542338 182.480049 
L 293.939783 184.503625 
L 295.337229 186.489827 
L 296.734674 188.430657 
L 298.13212 190.318299 
L 299.529565 192.145153 
L 300.927011 193.903863 
L 302.324456 195.587347 
L 303.721902 197.188826 
L 305.119348 198.701852 
L 306.516793 200.120331 
L 307.914239 201.438554 
L 309.311684 202.65121 
L 310.70913 203.753419 
L 312.106575 204.74074 
L 313.504021 205.6092 
L 314.901466 206.3553 
L 316.298912 206.976036 
L 317.696357 207.46891 
L 319.093803 207.831936 
L 320.491248 208.063652 
L 321.888694 208.163126 
L 323.286139 208.129957 
L 324.683585 207.964278 
L 326.08103 207.666757 
L 327.478476 207.238592 
L 328.875922 206.681507 
L 330.273367 205.997744 
L 331.670813 205.190058 
L 333.068258 204.2617 
L 334.465704 203.216409 
L 335.863149 202.058393 
L 337.260595 200.792316 
L 338.65804 199.423276 
L 340.055486 197.956785 
L 341.452931 196.398748 
L 342.850377 194.755439 
L 344.247822 193.033476 
L 345.645268 191.239791 
L 347.042713 189.381607 
L 348.440159 187.466407 
L 349.837604 185.501902 
L 351.23505 183.496003 
L 352.632496 181.456786 
L 354.029941 179.392464 
L 355.427387 177.311348 
L 356.824832 175.221818 
" clip-path="url(#p4646264aef)" style="fill: none; stroke: #008000; stroke-width: 1.5; stroke-linecap: square"/>
   </g>
   <g id="line2d_40">
    <path d="M 218.477725 171.338907 
L 219.87517 180.298513 
L 221.272616 186.076054 
L 222.670061 189.16789 
L 224.067507 190.030466 
L 225.464952 189.080523 
L 226.862398 186.695661 
L 228.259843 183.215207 
L 229.657289 178.941353 
L 231.054734 174.140514 
L 232.45218 169.044893 
L 233.849626 163.854197 
L 235.247071 158.737486 
L 236.644517 153.835129 
L 238.041962 149.260827 
L 239.439408 145.103695 
L 240.836853 141.430364 
L 242.234299 138.287097 
L 243.631744 135.701886 
L 245.02919 133.686525 
L 246.426635 132.238633 
L 247.824081 131.343621 
L 249.221526 130.976584 
L 250.618972 131.104112 
L 252.016417 131.686008 
L 253.413863 132.676904 
L 254.811308 134.027771 
L 256.208754 135.687312 
L 257.6062 137.603244 
L 259.003645 139.723456 
L 260.401091 141.997039 
L 261.798536 144.375206 
L 263.195982 146.812074 
L 264.593427 149.265332 
L 265.990873 151.696792 
L 267.388318 154.072809 
L 268.785764 156.364605 
L 270.183209 158.548466 
L 271.580655 160.605849 
L 272.9781 162.523381 
L 274.375546 164.29277 
L 275.772991 165.910627 
L 277.170437 167.378213 
L 278.567882 168.701112 
L 279.965328 169.88884 
L 281.362774 170.954405 
L 282.760219 171.913812 
L 284.157665 172.785539 
L 285.55511 173.589977 
L 286.952556 174.348855 
L 288.350001 175.084649 
L 289.747447 175.819994 
L 291.144892 176.577096 
L 292.542338 177.377167 
L 293.939783 178.239876 
L 295.337229 179.182831 
L 296.734674 180.221109 
L 298.13212 181.366823 
L 299.529565 182.628748 
L 300.927011 184.012004 
L 302.324456 185.517804 
L 303.721902 187.143281 
L 305.119348 188.881382 
L 306.516793 190.720844 
L 307.914239 192.646258 
L 309.311684 194.638215 
L 310.70913 196.673536 
L 312.106575 198.725597 
L 313.504021 200.764736 
L 314.901466 202.758749 
L 316.298912 204.673465 
L 317.696357 206.473407 
L 319.093803 208.122522 
L 320.491248 209.584984 
L 321.888694 210.826057 
L 323.286139 211.813007 
L 324.683585 212.516062 
L 326.08103 212.909396 
L 327.478476 212.972139 
L 328.875922 212.689376 
L 330.273367 212.053144 
L 331.670813 211.063393 
L 333.068258 209.728884 
L 334.465704 208.068032 
L 335.863149 206.109631 
L 337.260595 203.893467 
L 338.65804 201.470779 
L 340.055486 198.904527 
L 341.452931 196.269467 
L 342.850377 193.651959 
L 344.247822 191.149502 
L 345.645268 188.86995 
L 347.042713 186.930357 
L 348.440159 185.455421 
L 349.837604 184.575481 
L 351.23505 184.424008 
L 352.632496 185.134549 
L 354.029941 186.837069 
L 355.427387 189.653637 
L 356.824832 193.693387 
" clip-path="url(#p4646264aef)" style="fill: none; stroke: #ff0000; stroke-width: 1.5; stroke-linecap: square"/>
   </g>
   <g id="patch_18">
    <path d="M 211.560369 224.64 
L 211.560369 125.803636 
" style="fill: none; stroke: #000000; stroke-width: 0.8; stroke-linejoin: miter; stroke-linecap: square"/>
   </g>
   <g id="patch_19">
    <path d="M 363.742187 224.64 
L 363.742187 125.803636 
" style="fill: none; stroke: #000000; stroke-width: 0.8; stroke-linejoin: miter; stroke-linecap: square"/>
   </g>
   <g id="patch_20">
    <path d="M 211.560369 224.64 
L 363.742188 224.64 
" style="fill: none; stroke: #000000; stroke-width: 0.8; stroke-linejoin: miter; stroke-linecap: square"/>
   </g>
   <g id="patch_21">
    <path d="M 211.560369 125.803636 
L 363.742188 125.803636 
" style="fill: none; stroke: #000000; stroke-width: 0.8; stroke-linejoin: miter; stroke-linecap: square"/>
   </g>
   <g id="legend_1">
    <g id="patch_22">
     <path d="M 373.351278 208.419102 
L 469.793466 208.419102 
Q 471.793466 208.419102 471.793466 206.419102 
L 471.793466 163.384727 
Q 471.793466 161.384727 469.793466 161.384727 
L 373.351278 161.384727 
Q 371.351278 161.384727 371.351278 163.384727 
L 371.351278 206.419102 
Q 371.351278 208.419102 373.351278 208.419102 
z
" style="fill: #ffffff; opacity: 0.8; stroke: #cccccc; stroke-linejoin: miter"/>
    </g>
    <g id="PathCollection_5">
     <path d="M 385.351278 173.893699 
C 386.288913 173.893699 387.188271 173.521173 387.851278 172.858165 
C 388.514286 172.195157 388.886812 171.295799 388.886812 170.358165 
C 388.886812 169.42053 388.514286 168.521173 387.851278 167.858165 
C 387.188271 167.195157 386.288913 166.822631 385.351278 166.822631 
C 384.413644 166.822631 383.514286 167.195157 382.851278 167.858165 
C 382.188271 168.521173 381.815745 169.42053 381.815745 170.358165 
C 381.815745 171.295799 382.188271 172.195157 382.851278 172.858165 
C 383.514286 173.521173 384.413644 173.893699 385.351278 173.893699 
L 385.351278 173.893699 
z
" style="fill: none; stroke: #0000ff"/>
    </g>
    <g id="text_33">
     <!-- training data -->
     <g transform="translate(403.351278 172.983165)scale(0.1 -0.1)">
      <defs>
       <path id="DejaVuSans-74" d="M 1172 4494 
L 1172 3500 
L 2356 3500 
L 2356 3053 
L 1172 3053 
L 1172 1153 
Q 1172 725 1289 603 
Q 1406 481 1766 481 
L 2356 481 
L 2356 0 
L 1766 0 
Q 1100 0 847 248 
Q 594 497 594 1153 
L 594 3053 
L 172 3053 
L 172 3500 
L 594 3500 
L 594 4494 
L 1172 4494 
z
" transform="scale(0.015625)"/>
       <path id="DejaVuSans-72" d="M 2631 2963 
Q 2534 3019 2420 3045 
Q 2306 3072 2169 3072 
Q 1681 3072 1420 2755 
Q 1159 2438 1159 1844 
L 1159 0 
L 581 0 
L 581 3500 
L 1159 3500 
L 1159 2956 
Q 1341 3275 1631 3429 
Q 1922 3584 2338 3584 
Q 2397 3584 2469 3576 
Q 2541 3569 2628 3553 
L 2631 2963 
z
" transform="scale(0.015625)"/>
       <path id="DejaVuSans-61" d="M 2194 1759 
Q 1497 1759 1228 1600 
Q 959 1441 959 1056 
Q 959 750 1161 570 
Q 1363 391 1709 391 
Q 2188 391 2477 730 
Q 2766 1069 2766 1631 
L 2766 1759 
L 2194 1759 
z
M 3341 1997 
L 3341 0 
L 2766 0 
L 2766 531 
Q 2569 213 2275 61 
Q 1981 -91 1556 -91 
Q 1019 -91 701 211 
Q 384 513 384 1019 
Q 384 1609 779 1909 
Q 1175 2209 1959 2209 
L 2766 2209 
L 2766 2266 
Q 2766 2663 2505 2880 
Q 2244 3097 1772 3097 
Q 1472 3097 1187 3025 
Q 903 2953 641 2809 
L 641 3341 
Q 956 3463 1253 3523 
Q 1550 3584 1831 3584 
Q 2591 3584 2966 3190 
Q 3341 2797 3341 1997 
z
" transform="scale(0.015625)"/>
       <path id="DejaVuSans-69" d="M 603 3500 
L 1178 3500 
L 1178 0 
L 603 0 
L 603 3500 
z
M 603 4863 
L 1178 4863 
L 1178 4134 
L 603 4134 
L 603 4863 
z
" transform="scale(0.015625)"/>
       <path id="DejaVuSans-6e" d="M 3513 2113 
L 3513 0 
L 2938 0 
L 2938 2094 
Q 2938 2591 2744 2837 
Q 2550 3084 2163 3084 
Q 1697 3084 1428 2787 
Q 1159 2491 1159 1978 
L 1159 0 
L 581 0 
L 581 3500 
L 1159 3500 
L 1159 2956 
Q 1366 3272 1645 3428 
Q 1925 3584 2291 3584 
Q 2894 3584 3203 3211 
Q 3513 2838 3513 2113 
z
" transform="scale(0.015625)"/>
       <path id="DejaVuSans-67" d="M 2906 1791 
Q 2906 2416 2648 2759 
Q 2391 3103 1925 3103 
Q 1463 3103 1205 2759 
Q 947 2416 947 1791 
Q 947 1169 1205 825 
Q 1463 481 1925 481 
Q 2391 481 2648 825 
Q 2906 1169 2906 1791 
z
M 3481 434 
Q 3481 -459 3084 -895 
Q 2688 -1331 1869 -1331 
Q 1566 -1331 1297 -1286 
Q 1028 -1241 775 -1147 
L 775 -588 
Q 1028 -725 1275 -790 
Q 1522 -856 1778 -856 
Q 2344 -856 2625 -561 
Q 2906 -266 2906 331 
L 2906 616 
Q 2728 306 2450 153 
Q 2172 0 1784 0 
Q 1141 0 747 490 
Q 353 981 353 1791 
Q 353 2603 747 3093 
Q 1141 3584 1784 3584 
Q 2172 3584 2450 3431 
Q 2728 3278 2906 2969 
L 2906 3500 
L 3481 3500 
L 3481 434 
z
" transform="scale(0.015625)"/>
       <path id="DejaVuSans-20" transform="scale(0.015625)"/>
       <path id="DejaVuSans-64" d="M 2906 2969 
L 2906 4863 
L 3481 4863 
L 3481 0 
L 2906 0 
L 2906 525 
Q 2725 213 2448 61 
Q 2172 -91 1784 -91 
Q 1150 -91 751 415 
Q 353 922 353 1747 
Q 353 2572 751 3078 
Q 1150 3584 1784 3584 
Q 2172 3584 2448 3432 
Q 2725 3281 2906 2969 
z
M 947 1747 
Q 947 1113 1208 752 
Q 1469 391 1925 391 
Q 2381 391 2643 752 
Q 2906 1113 2906 1747 
Q 2906 2381 2643 2742 
Q 2381 3103 1925 3103 
Q 1469 3103 1208 2742 
Q 947 2381 947 1747 
z
" transform="scale(0.015625)"/>
      </defs>
      <use xlink:href="#DejaVuSans-74"/>
      <use xlink:href="#DejaVuSans-72" x="39.208984"/>
      <use xlink:href="#DejaVuSans-61" x="80.322266"/>
      <use xlink:href="#DejaVuSans-69" x="141.601562"/>
      <use xlink:href="#DejaVuSans-6e" x="169.384766"/>
      <use xlink:href="#DejaVuSans-69" x="232.763672"/>
      <use xlink:href="#DejaVuSans-6e" x="260.546875"/>
      <use xlink:href="#DejaVuSans-67" x="323.925781"/>
      <use xlink:href="#DejaVuSans-20" x="387.402344"/>
      <use xlink:href="#DejaVuSans-64" x="419.189453"/>
      <use xlink:href="#DejaVuSans-61" x="482.666016"/>
      <use xlink:href="#DejaVuSans-74" x="543.945312"/>
      <use xlink:href="#DejaVuSans-61" x="583.154297"/>
     </g>
    </g>
    <g id="line2d_41">
     <path d="M 375.351278 184.16129 
L 385.351278 184.16129 
L 395.351278 184.16129 
" style="fill: none; stroke: #008000; stroke-width: 1.5; stroke-linecap: square"/>
    </g>
    <g id="text_34">
     <!-- $\sin(2\pi x)$ -->
     <g transform="translate(403.351278 187.66129)scale(0.1 -0.1)">
      <defs>
       <path id="DejaVuSans-73" d="M 2834 3397 
L 2834 2853 
Q 2591 2978 2328 3040 
Q 2066 3103 1784 3103 
Q 1356 3103 1142 2972 
Q 928 2841 928 2578 
Q 928 2378 1081 2264 
Q 1234 2150 1697 2047 
L 1894 2003 
Q 2506 1872 2764 1633 
Q 3022 1394 3022 966 
Q 3022 478 2636 193 
Q 2250 -91 1575 -91 
Q 1294 -91 989 -36 
Q 684 19 347 128 
L 347 722 
Q 666 556 975 473 
Q 1284 391 1588 391 
Q 1994 391 2212 530 
Q 2431 669 2431 922 
Q 2431 1156 2273 1281 
Q 2116 1406 1581 1522 
L 1381 1569 
Q 847 1681 609 1914 
Q 372 2147 372 2553 
Q 372 3047 722 3315 
Q 1072 3584 1716 3584 
Q 2034 3584 2315 3537 
Q 2597 3491 2834 3397 
z
" transform="scale(0.015625)"/>
       <path id="DejaVuSans-28" d="M 1984 4856 
Q 1566 4138 1362 3434 
Q 1159 2731 1159 2009 
Q 1159 1288 1364 580 
Q 1569 -128 1984 -844 
L 1484 -844 
Q 1016 -109 783 600 
Q 550 1309 550 2009 
Q 550 2706 781 3412 
Q 1013 4119 1484 4856 
L 1984 4856 
z
" transform="scale(0.015625)"/>
       <path id="DejaVuSans-Oblique-3c0" d="M 584 3500 
L 3938 3500 
L 3825 2925 
L 3384 2925 
L 2966 775 
Q 2922 550 2981 450 
Q 3038 353 3209 353 
Q 3256 353 3325 363 
Q 3397 369 3419 372 
L 3338 -44 
Q 3222 -84 3103 -103 
Q 2981 -122 2866 -122 
Q 2491 -122 2388 81 
Q 2284 288 2391 838 
L 2797 2925 
L 1506 2925 
L 938 0 
L 350 0 
L 919 2925 
L 472 2925 
L 584 3500 
z
" transform="scale(0.015625)"/>
       <path id="DejaVuSans-Oblique-78" d="M 3841 3500 
L 2234 1784 
L 3219 0 
L 2559 0 
L 1819 1388 
L 531 0 
L -166 0 
L 1556 1844 
L 641 3500 
L 1300 3500 
L 1972 2234 
L 3144 3500 
L 3841 3500 
z
" transform="scale(0.015625)"/>
       <path id="DejaVuSans-29" d="M 513 4856 
L 1013 4856 
Q 1481 4119 1714 3412 
Q 1947 2706 1947 2009 
Q 1947 1309 1714 600 
Q 1481 -109 1013 -844 
L 513 -844 
Q 928 -128 1133 580 
Q 1338 1288 1338 2009 
Q 1338 2731 1133 3434 
Q 928 4138 513 4856 
z
" transform="scale(0.015625)"/>
      </defs>
      <use xlink:href="#DejaVuSans-73" transform="translate(0 0.015625)"/>
      <use xlink:href="#DejaVuSans-69" transform="translate(52.099609 0.015625)"/>
      <use xlink:href="#DejaVuSans-6e" transform="translate(79.882812 0.015625)"/>
      <use xlink:href="#DejaVuSans-28" transform="translate(143.261719 0.015625)"/>
      <use xlink:href="#DejaVuSans-32" transform="translate(182.275391 0.015625)"/>
      <use xlink:href="#DejaVuSans-Oblique-3c0" transform="translate(245.898438 0.015625)"/>
      <use xlink:href="#DejaVuSans-Oblique-78" transform="translate(306.103516 0.015625)"/>
      <use xlink:href="#DejaVuSans-29" transform="translate(365.283203 0.015625)"/>
     </g>
    </g>
    <g id="line2d_42">
     <path d="M 375.351278 198.839415 
L 385.351278 198.839415 
L 395.351278 198.839415 
" style="fill: none; stroke: #ff0000; stroke-width: 1.5; stroke-linecap: square"/>
    </g>
    <g id="text_35">
     <!-- fitting -->
     <g transform="translate(403.351278 202.339415)scale(0.1 -0.1)">
      <defs>
       <path id="DejaVuSans-66" d="M 2375 4863 
L 2375 4384 
L 1825 4384 
Q 1516 4384 1395 4259 
Q 1275 4134 1275 3809 
L 1275 3500 
L 2222 3500 
L 2222 3053 
L 1275 3053 
L 1275 0 
L 697 0 
L 697 3053 
L 147 3053 
L 147 3500 
L 697 3500 
L 697 3744 
Q 697 4328 969 4595 
Q 1241 4863 1831 4863 
L 2375 4863 
z
" transform="scale(0.015625)"/>
      </defs>
      <use xlink:href="#DejaVuSans-66"/>
      <use xlink:href="#DejaVuSans-69" x="35.205078"/>
      <use xlink:href="#DejaVuSans-74" x="62.988281"/>
      <use xlink:href="#DejaVuSans-74" x="102.197266"/>
      <use xlink:href="#DejaVuSans-69" x="141.40625"/>
      <use xlink:href="#DejaVuSans-6e" x="169.189453"/>
      <use xlink:href="#DejaVuSans-67" x="232.568359"/>
     </g>
    </g>
   </g>
  </g>
 </g>
 <defs>
  <clipPath id="pfa2b96f8e8">
   <rect x="28.942188" y="7.2" width="152.181818" height="98.836364"/>
  </clipPath>
  <clipPath id="p7a19405e27">
   <rect x="211.560369" y="7.2" width="152.181818" height="98.836364"/>
  </clipPath>
  <clipPath id="pa94a3aa810">
   <rect x="28.942188" y="125.803636" width="152.181818" height="98.836364"/>
  </clipPath>
  <clipPath id="p4646264aef">
   <rect x="211.560369" y="125.803636" width="152.181818" height="98.836364"/>
  </clipPath>
 </defs>
</svg>
