<?xml version="1.0" encoding="utf-8" standalone="no"?>
<!DOCTYPE svg PUBLIC "-//W3C//DTD SVG 1.1//EN"
  "http://www.w3.org/Graphics/SVG/1.1/DTD/svg11.dtd">
<svg xmlns:xlink="http://www.w3.org/1999/xlink" width="497.665pt" height="252.317344pt" viewBox="0 0 497.665 252.317344" xmlns="http://www.w3.org/2000/svg" version="1.1">
 <metadata>
  <rdf:RDF xmlns:dc="http://purl.org/dc/elements/1.1/" xmlns:cc="http://creativecommons.org/ns#" xmlns:rdf="http://www.w3.org/1999/02/22-rdf-syntax-ns#">
   <cc:Work>
    <dc:type rdf:resource="http://purl.org/dc/dcmitype/StillImage"/>
    <dc:date>2022-09-26T00:03:08.163959</dc:date>
    <dc:format>image/svg+xml</dc:format>
    <dc:creator>
     <cc:Agent>
      <dc:title>Matplotlib v3.5.2, https://matplotlib.org/</dc:title>
     </cc:Agent>
    </dc:creator>
   </cc:Work>
  </rdf:RDF>
 </metadata>
 <defs>
  <style type="text/css">*{stroke-linejoin: round; stroke-linecap: butt}</style>
 </defs>
 <g id="figure_1">
  <g id="patch_1">
   <path d="M -0 252.317344 
L 497.665 252.317344 
L 497.665 0 
L -0 0 
L -0 252.317344 
z
" style="fill: none"/>
  </g>
  <g id="axes_1">
   <g id="patch_2">
    <path d="M 38.482813 228.439219 
L 373.282813 228.439219 
L 373.282813 10.999219 
L 38.482813 10.999219 
z
" style="fill: #ffffff"/>
   </g>
   <g id="PathCollection_1">
    <defs>
     <path id="C0_0_9b0d40ae18" d="M 0 3.535534 
C 0.937635 3.535534 1.836992 3.163008 2.5 2.5 
C 3.163008 1.836992 3.535534 0.937635 3.535534 -0 
C 3.535534 -0.937635 3.163008 -1.836992 2.5 -2.5 
C 1.836992 -3.163008 0.937635 -3.535534 0 -3.535534 
C -0.937635 -3.535534 -1.836992 -3.163008 -2.5 -2.5 
C -3.163008 -1.836992 -3.535534 -0.937635 -3.535534 0 
C -3.535534 0.937635 -3.163008 1.836992 -2.5 2.5 
C -1.836992 3.163008 -0.937635 3.535534 0 3.535534 
z
"/>
    </defs>
    <g clip-path="url(#pff09b92519)">
     <use xlink:href="#C0_0_9b0d40ae18" x="66.382812" y="111.176814" style="fill: none; stroke: #0000ff"/>
    </g>
    <g clip-path="url(#pff09b92519)">
     <use xlink:href="#C0_0_9b0d40ae18" x="97.382812" y="94.710452" style="fill: none; stroke: #0000ff"/>
    </g>
    <g clip-path="url(#pff09b92519)">
     <use xlink:href="#C0_0_9b0d40ae18" x="128.382812" y="22.379703" style="fill: none; stroke: #0000ff"/>
    </g>
    <g clip-path="url(#pff09b92519)">
     <use xlink:href="#C0_0_9b0d40ae18" x="159.382812" y="62.61495" style="fill: none; stroke: #0000ff"/>
    </g>
    <g clip-path="url(#pff09b92519)">
     <use xlink:href="#C0_0_9b0d40ae18" x="190.382812" y="107.986667" style="fill: none; stroke: #0000ff"/>
    </g>
    <g clip-path="url(#pff09b92519)">
     <use xlink:href="#C0_0_9b0d40ae18" x="221.382812" y="128.433446" style="fill: none; stroke: #0000ff"/>
    </g>
    <g clip-path="url(#pff09b92519)">
     <use xlink:href="#C0_0_9b0d40ae18" x="252.382812" y="166.912998" style="fill: none; stroke: #0000ff"/>
    </g>
    <g clip-path="url(#pff09b92519)">
     <use xlink:href="#C0_0_9b0d40ae18" x="283.382812" y="202.631891" style="fill: none; stroke: #0000ff"/>
    </g>
    <g clip-path="url(#pff09b92519)">
     <use xlink:href="#C0_0_9b0d40ae18" x="314.382812" y="166.024046" style="fill: none; stroke: #0000ff"/>
    </g>
    <g clip-path="url(#pff09b92519)">
     <use xlink:href="#C0_0_9b0d40ae18" x="345.382812" y="160.35667" style="fill: none; stroke: #0000ff"/>
    </g>
   </g>
   <g id="PolyCollection_1">
    <defs>
     <path id="m683b9cef3c" d="M 66.382812 -213.113691 
L 66.382812 -77.796218 
L 69.200994 -83.230239 
L 72.019176 -88.308169 
L 74.837358 -93.042224 
L 77.65554 -97.445343 
L 80.473722 -101.530954 
L 83.291903 -105.312721 
L 86.110085 -108.804301 
L 88.928267 -112.019099 
L 91.746449 -114.970068 
L 94.564631 -117.669534 
L 97.382812 -120.129058 
L 100.200994 -122.359349 
L 103.019176 -124.3702 
L 105.837358 -126.170469 
L 108.65554 -127.768084 
L 111.473722 -129.170066 
L 114.291903 -130.38258 
L 117.110085 -131.410984 
L 119.928267 -132.259903 
L 122.746449 -132.933293 
L 125.564631 -133.434513 
L 128.382812 -133.7664 
L 131.200994 -133.931338 
L 134.019176 -133.931329 
L 136.837358 -133.768056 
L 139.65554 -133.442947 
L 142.473722 -132.957239 
L 145.291903 -132.312029 
L 148.110085 -131.508335 
L 150.928267 -130.547145 
L 153.746449 -129.429471 
L 156.564631 -128.156397 
L 159.382812 -126.729128 
L 162.200994 -125.149038 
L 165.019176 -123.41772 
L 167.837358 -121.537028 
L 170.65554 -119.509128 
L 173.473722 -117.336544 
L 176.291903 -115.022202 
L 179.110085 -112.569478 
L 181.928267 -109.982241 
L 184.746449 -107.264893 
L 187.564631 -104.422412 
L 190.382812 -101.460387 
L 193.200994 -98.385049 
L 196.019176 -95.2033 
L 198.837358 -91.922731 
L 201.65554 -88.551636 
L 204.473722 -85.099017 
L 207.291903 -81.574579 
L 210.110085 -77.988715 
L 212.928267 -74.352479 
L 215.746449 -70.677549 
L 218.564631 -66.976178 
L 221.382812 -63.261128 
L 224.200994 -59.545598 
L 227.019176 -55.843131 
L 229.837358 -52.16752 
L 232.65554 -48.532687 
L 235.473722 -44.952562 
L 238.291903 -41.44095 
L 241.110085 -38.011382 
L 243.928267 -34.676966 
L 246.746449 -31.450236 
L 249.564631 -28.342988 
L 252.382813 -25.366138 
L 255.200994 -22.52958 
L 258.019176 -19.842063 
L 260.837358 -17.311098 
L 263.65554 -14.942909 
L 266.473722 -12.742424 
L 269.291903 -10.713335 
L 272.110085 -8.858234 
L 274.928267 -7.178831 
L 277.746449 -5.676256 
L 280.564631 -4.351455 
L 283.382812 -3.205659 
L 286.200994 -2.240909 
L 289.019176 -1.4606 
L 291.837358 -0.870017 
L 294.65554 -0.476792 
L 297.473722 -0.29124 
L 300.291903 -0.326519 
L 303.110085 -0.598535 
L 305.928267 -1.125548 
L 308.746449 -1.927376 
L 311.564631 -3.024104 
L 314.382812 -4.43411 
L 317.200994 -6.171166 
L 320.019176 -8.24022 
L 322.837358 -10.631246 
L 325.65554 -13.310317 
L 328.473722 -16.206734 
L 331.291903 -19.19493 
L 334.110085 -22.070433 
L 336.928267 -24.521598 
L 339.746449 -26.10477 
L 342.564631 -26.239909 
L 345.382812 -24.248537 
L 345.382812 -168.336442 
L 345.382812 -168.336442 
L 342.564631 -162.180489 
L 339.746449 -157.722569 
L 336.928267 -154.414743 
L 334.110085 -151.794681 
L 331.291903 -149.52441 
L 328.473722 -147.386691 
L 325.65554 -145.260918 
L 322.837358 -143.095532 
L 320.019176 -140.884651 
L 317.200994 -138.650603 
L 314.382812 -136.431652 
L 311.564631 -134.273642 
L 308.746449 -132.224391 
L 305.928267 -130.329987 
L 303.110085 -128.632373 
L 300.291903 -127.16785 
L 297.473722 -125.966211 
L 294.65554 -125.050375 
L 291.837358 -124.436372 
L 289.019176 -124.133634 
L 286.200994 -124.145499 
L 283.382812 -124.469878 
L 280.564631 -125.10003 
L 277.746449 -126.025383 
L 274.928267 -127.23236 
L 272.110085 -128.705161 
L 269.291903 -130.426474 
L 266.473722 -132.378098 
L 263.65554 -134.541455 
L 260.837358 -136.898012 
L 258.019176 -139.429593 
L 255.200994 -142.11861 
L 252.382813 -144.948221 
L 249.564631 -147.902417 
L 246.746449 -150.966071 
L 243.928267 -154.124932 
L 241.110085 -157.36561 
L 238.291903 -160.67552 
L 235.473722 -164.04283 
L 232.65554 -167.456385 
L 229.837358 -170.905642 
L 227.019176 -174.380586 
L 224.200994 -177.871667 
L 221.382812 -181.369724 
L 218.564631 -184.865925 
L 215.746449 -188.351706 
L 212.928267 -191.818722 
L 210.110085 -195.2588 
L 207.291903 -198.663905 
L 204.473722 -202.026112 
L 201.65554 -205.337583 
L 198.837358 -208.590557 
L 196.019176 -211.77734 
L 193.200994 -214.89031 
L 190.382812 -217.921924 
L 187.564631 -220.864727 
L 184.746449 -223.711372 
L 181.928267 -226.454642 
L 179.110085 -229.08747 
L 176.291903 -231.602968 
L 173.473722 -233.994455 
L 170.65554 -236.255485 
L 167.837358 -238.379874 
L 165.019176 -240.361732 
L 162.200994 -242.195489 
L 159.382812 -243.875925 
L 156.564631 -245.398194 
L 153.746449 -246.757857 
L 150.928267 -247.950903 
L 148.110085 -248.973779 
L 145.291903 -249.823417 
L 142.473722 -250.497263 
L 139.65554 -250.993304 
L 136.837358 -251.3101 
L 134.019176 -251.446821 
L 131.200994 -251.403278 
L 128.382812 -251.179963 
L 125.564631 -250.778096 
L 122.746449 -250.199662 
L 119.928267 -249.447468 
L 117.110085 -248.525188 
L 114.291903 -247.437417 
L 111.473722 -246.189727 
L 108.65554 -244.788715 
L 105.837358 -243.242051 
L 103.019176 -241.55852 
L 100.200994 -239.748045 
L 97.382812 -237.821705 
L 94.564631 -235.791718 
L 91.746449 -233.671405 
L 88.928267 -231.475121 
L 86.110085 -229.218145 
L 83.291903 -226.916531 
L 80.473722 -224.586927 
L 77.65554 -222.246353 
L 74.837358 -219.911954 
L 72.019176 -217.600741 
L 69.200994 -215.329328 
L 66.382812 -213.113691 
z
" style="stroke: #ffc0cb; stroke-opacity: 0.5"/>
    </defs>
    <g clip-path="url(#pff09b92519)">
     <use xlink:href="#m683b9cef3c" x="0" y="252.317344" style="fill: #ffc0cb; fill-opacity: 0.5; stroke: #ffc0cb; stroke-opacity: 0.5"/>
    </g>
   </g>
   <g id="matplotlib.axis_1">
    <g id="xtick_1">
     <g id="line2d_1">
      <defs>
       <path id="me39fbad8c1" d="M 0 0 
L 0 3.5 
" style="stroke: #000000; stroke-width: 0.8"/>
      </defs>
      <g>
       <use xlink:href="#me39fbad8c1" x="66.382812" y="228.439219" style="stroke: #000000; stroke-width: 0.8"/>
      </g>
     </g>
     <g id="text_1">
      <!-- 0.0 -->
      <g transform="translate(58.43125 243.037656)scale(0.1 -0.1)">
       <defs>
        <path id="DejaVuSans-30" d="M 2034 4250 
Q 1547 4250 1301 3770 
Q 1056 3291 1056 2328 
Q 1056 1369 1301 889 
Q 1547 409 2034 409 
Q 2525 409 2770 889 
Q 3016 1369 3016 2328 
Q 3016 3291 2770 3770 
Q 2525 4250 2034 4250 
z
M 2034 4750 
Q 2819 4750 3233 4129 
Q 3647 3509 3647 2328 
Q 3647 1150 3233 529 
Q 2819 -91 2034 -91 
Q 1250 -91 836 529 
Q 422 1150 422 2328 
Q 422 3509 836 4129 
Q 1250 4750 2034 4750 
z
" transform="scale(0.015625)"/>
        <path id="DejaVuSans-2e" d="M 684 794 
L 1344 794 
L 1344 0 
L 684 0 
L 684 794 
z
" transform="scale(0.015625)"/>
       </defs>
       <use xlink:href="#DejaVuSans-30"/>
       <use xlink:href="#DejaVuSans-2e" x="63.623047"/>
       <use xlink:href="#DejaVuSans-30" x="95.410156"/>
      </g>
     </g>
    </g>
    <g id="xtick_2">
     <g id="line2d_2">
      <g>
       <use xlink:href="#me39fbad8c1" x="122.182813" y="228.439219" style="stroke: #000000; stroke-width: 0.8"/>
      </g>
     </g>
     <g id="text_2">
      <!-- 0.2 -->
      <g transform="translate(114.23125 243.037656)scale(0.1 -0.1)">
       <defs>
        <path id="DejaVuSans-32" d="M 1228 531 
L 3431 531 
L 3431 0 
L 469 0 
L 469 531 
Q 828 903 1448 1529 
Q 2069 2156 2228 2338 
Q 2531 2678 2651 2914 
Q 2772 3150 2772 3378 
Q 2772 3750 2511 3984 
Q 2250 4219 1831 4219 
Q 1534 4219 1204 4116 
Q 875 4013 500 3803 
L 500 4441 
Q 881 4594 1212 4672 
Q 1544 4750 1819 4750 
Q 2544 4750 2975 4387 
Q 3406 4025 3406 3419 
Q 3406 3131 3298 2873 
Q 3191 2616 2906 2266 
Q 2828 2175 2409 1742 
Q 1991 1309 1228 531 
z
" transform="scale(0.015625)"/>
       </defs>
       <use xlink:href="#DejaVuSans-30"/>
       <use xlink:href="#DejaVuSans-2e" x="63.623047"/>
       <use xlink:href="#DejaVuSans-32" x="95.410156"/>
      </g>
     </g>
    </g>
    <g id="xtick_3">
     <g id="line2d_3">
      <g>
       <use xlink:href="#me39fbad8c1" x="177.982813" y="228.439219" style="stroke: #000000; stroke-width: 0.8"/>
      </g>
     </g>
     <g id="text_3">
      <!-- 0.4 -->
      <g transform="translate(170.03125 243.037656)scale(0.1 -0.1)">
       <defs>
        <path id="DejaVuSans-34" d="M 2419 4116 
L 825 1625 
L 2419 1625 
L 2419 4116 
z
M 2253 4666 
L 3047 4666 
L 3047 1625 
L 3713 1625 
L 3713 1100 
L 3047 1100 
L 3047 0 
L 2419 0 
L 2419 1100 
L 313 1100 
L 313 1709 
L 2253 4666 
z
" transform="scale(0.015625)"/>
       </defs>
       <use xlink:href="#DejaVuSans-30"/>
       <use xlink:href="#DejaVuSans-2e" x="63.623047"/>
       <use xlink:href="#DejaVuSans-34" x="95.410156"/>
      </g>
     </g>
    </g>
    <g id="xtick_4">
     <g id="line2d_4">
      <g>
       <use xlink:href="#me39fbad8c1" x="233.782813" y="228.439219" style="stroke: #000000; stroke-width: 0.8"/>
      </g>
     </g>
     <g id="text_4">
      <!-- 0.6 -->
      <g transform="translate(225.83125 243.037656)scale(0.1 -0.1)">
       <defs>
        <path id="DejaVuSans-36" d="M 2113 2584 
Q 1688 2584 1439 2293 
Q 1191 2003 1191 1497 
Q 1191 994 1439 701 
Q 1688 409 2113 409 
Q 2538 409 2786 701 
Q 3034 994 3034 1497 
Q 3034 2003 2786 2293 
Q 2538 2584 2113 2584 
z
M 3366 4563 
L 3366 3988 
Q 3128 4100 2886 4159 
Q 2644 4219 2406 4219 
Q 1781 4219 1451 3797 
Q 1122 3375 1075 2522 
Q 1259 2794 1537 2939 
Q 1816 3084 2150 3084 
Q 2853 3084 3261 2657 
Q 3669 2231 3669 1497 
Q 3669 778 3244 343 
Q 2819 -91 2113 -91 
Q 1303 -91 875 529 
Q 447 1150 447 2328 
Q 447 3434 972 4092 
Q 1497 4750 2381 4750 
Q 2619 4750 2861 4703 
Q 3103 4656 3366 4563 
z
" transform="scale(0.015625)"/>
       </defs>
       <use xlink:href="#DejaVuSans-30"/>
       <use xlink:href="#DejaVuSans-2e" x="63.623047"/>
       <use xlink:href="#DejaVuSans-36" x="95.410156"/>
      </g>
     </g>
    </g>
    <g id="xtick_5">
     <g id="line2d_5">
      <g>
       <use xlink:href="#me39fbad8c1" x="289.582813" y="228.439219" style="stroke: #000000; stroke-width: 0.8"/>
      </g>
     </g>
     <g id="text_5">
      <!-- 0.8 -->
      <g transform="translate(281.63125 243.037656)scale(0.1 -0.1)">
       <defs>
        <path id="DejaVuSans-38" d="M 2034 2216 
Q 1584 2216 1326 1975 
Q 1069 1734 1069 1313 
Q 1069 891 1326 650 
Q 1584 409 2034 409 
Q 2484 409 2743 651 
Q 3003 894 3003 1313 
Q 3003 1734 2745 1975 
Q 2488 2216 2034 2216 
z
M 1403 2484 
Q 997 2584 770 2862 
Q 544 3141 544 3541 
Q 544 4100 942 4425 
Q 1341 4750 2034 4750 
Q 2731 4750 3128 4425 
Q 3525 4100 3525 3541 
Q 3525 3141 3298 2862 
Q 3072 2584 2669 2484 
Q 3125 2378 3379 2068 
Q 3634 1759 3634 1313 
Q 3634 634 3220 271 
Q 2806 -91 2034 -91 
Q 1263 -91 848 271 
Q 434 634 434 1313 
Q 434 1759 690 2068 
Q 947 2378 1403 2484 
z
M 1172 3481 
Q 1172 3119 1398 2916 
Q 1625 2713 2034 2713 
Q 2441 2713 2670 2916 
Q 2900 3119 2900 3481 
Q 2900 3844 2670 4047 
Q 2441 4250 2034 4250 
Q 1625 4250 1398 4047 
Q 1172 3844 1172 3481 
z
" transform="scale(0.015625)"/>
       </defs>
       <use xlink:href="#DejaVuSans-30"/>
       <use xlink:href="#DejaVuSans-2e" x="63.623047"/>
       <use xlink:href="#DejaVuSans-38" x="95.410156"/>
      </g>
     </g>
    </g>
    <g id="xtick_6">
     <g id="line2d_6">
      <g>
       <use xlink:href="#me39fbad8c1" x="345.382813" y="228.439219" style="stroke: #000000; stroke-width: 0.8"/>
      </g>
     </g>
     <g id="text_6">
      <!-- 1.0 -->
      <g transform="translate(337.43125 243.037656)scale(0.1 -0.1)">
       <defs>
        <path id="DejaVuSans-31" d="M 794 531 
L 1825 531 
L 1825 4091 
L 703 3866 
L 703 4441 
L 1819 4666 
L 2450 4666 
L 2450 531 
L 3481 531 
L 3481 0 
L 794 0 
L 794 531 
z
" transform="scale(0.015625)"/>
       </defs>
       <use xlink:href="#DejaVuSans-31"/>
       <use xlink:href="#DejaVuSans-2e" x="63.623047"/>
       <use xlink:href="#DejaVuSans-30" x="95.410156"/>
      </g>
     </g>
    </g>
   </g>
   <g id="matplotlib.axis_2">
    <g id="ytick_1">
     <g id="line2d_7">
      <defs>
       <path id="m794b352a78" d="M 0 0 
L -3.5 0 
" style="stroke: #000000; stroke-width: 0.8"/>
      </defs>
      <g>
       <use xlink:href="#m794b352a78" x="38.482813" y="228.439219" style="stroke: #000000; stroke-width: 0.8"/>
      </g>
     </g>
     <g id="text_7">
      <!-- −1.5 -->
      <g transform="translate(7.2 232.238437)scale(0.1 -0.1)">
       <defs>
        <path id="DejaVuSans-2212" d="M 678 2272 
L 4684 2272 
L 4684 1741 
L 678 1741 
L 678 2272 
z
" transform="scale(0.015625)"/>
        <path id="DejaVuSans-35" d="M 691 4666 
L 3169 4666 
L 3169 4134 
L 1269 4134 
L 1269 2991 
Q 1406 3038 1543 3061 
Q 1681 3084 1819 3084 
Q 2600 3084 3056 2656 
Q 3513 2228 3513 1497 
Q 3513 744 3044 326 
Q 2575 -91 1722 -91 
Q 1428 -91 1123 -41 
Q 819 9 494 109 
L 494 744 
Q 775 591 1075 516 
Q 1375 441 1709 441 
Q 2250 441 2565 725 
Q 2881 1009 2881 1497 
Q 2881 1984 2565 2268 
Q 2250 2553 1709 2553 
Q 1456 2553 1204 2497 
Q 953 2441 691 2322 
L 691 4666 
z
" transform="scale(0.015625)"/>
       </defs>
       <use xlink:href="#DejaVuSans-2212"/>
       <use xlink:href="#DejaVuSans-31" x="83.789062"/>
       <use xlink:href="#DejaVuSans-2e" x="147.412109"/>
       <use xlink:href="#DejaVuSans-35" x="179.199219"/>
      </g>
     </g>
    </g>
    <g id="ytick_2">
     <g id="line2d_8">
      <g>
       <use xlink:href="#m794b352a78" x="38.482813" y="192.199219" style="stroke: #000000; stroke-width: 0.8"/>
      </g>
     </g>
     <g id="text_8">
      <!-- −1.0 -->
      <g transform="translate(7.2 195.998437)scale(0.1 -0.1)">
       <use xlink:href="#DejaVuSans-2212"/>
       <use xlink:href="#DejaVuSans-31" x="83.789062"/>
       <use xlink:href="#DejaVuSans-2e" x="147.412109"/>
       <use xlink:href="#DejaVuSans-30" x="179.199219"/>
      </g>
     </g>
    </g>
    <g id="ytick_3">
     <g id="line2d_9">
      <g>
       <use xlink:href="#m794b352a78" x="38.482813" y="155.959219" style="stroke: #000000; stroke-width: 0.8"/>
      </g>
     </g>
     <g id="text_9">
      <!-- −0.5 -->
      <g transform="translate(7.2 159.758437)scale(0.1 -0.1)">
       <use xlink:href="#DejaVuSans-2212"/>
       <use xlink:href="#DejaVuSans-30" x="83.789062"/>
       <use xlink:href="#DejaVuSans-2e" x="147.412109"/>
       <use xlink:href="#DejaVuSans-35" x="179.199219"/>
      </g>
     </g>
    </g>
    <g id="ytick_4">
     <g id="line2d_10">
      <g>
       <use xlink:href="#m794b352a78" x="38.482813" y="119.719219" style="stroke: #000000; stroke-width: 0.8"/>
      </g>
     </g>
     <g id="text_10">
      <!-- 0.0 -->
      <g transform="translate(15.579688 123.518437)scale(0.1 -0.1)">
       <use xlink:href="#DejaVuSans-30"/>
       <use xlink:href="#DejaVuSans-2e" x="63.623047"/>
       <use xlink:href="#DejaVuSans-30" x="95.410156"/>
      </g>
     </g>
    </g>
    <g id="ytick_5">
     <g id="line2d_11">
      <g>
       <use xlink:href="#m794b352a78" x="38.482813" y="83.479219" style="stroke: #000000; stroke-width: 0.8"/>
      </g>
     </g>
     <g id="text_11">
      <!-- 0.5 -->
      <g transform="translate(15.579688 87.278437)scale(0.1 -0.1)">
       <use xlink:href="#DejaVuSans-30"/>
       <use xlink:href="#DejaVuSans-2e" x="63.623047"/>
       <use xlink:href="#DejaVuSans-35" x="95.410156"/>
      </g>
     </g>
    </g>
    <g id="ytick_6">
     <g id="line2d_12">
      <g>
       <use xlink:href="#m794b352a78" x="38.482813" y="47.239219" style="stroke: #000000; stroke-width: 0.8"/>
      </g>
     </g>
     <g id="text_12">
      <!-- 1.0 -->
      <g transform="translate(15.579688 51.038437)scale(0.1 -0.1)">
       <use xlink:href="#DejaVuSans-31"/>
       <use xlink:href="#DejaVuSans-2e" x="63.623047"/>
       <use xlink:href="#DejaVuSans-30" x="95.410156"/>
      </g>
     </g>
    </g>
    <g id="ytick_7">
     <g id="line2d_13">
      <g>
       <use xlink:href="#m794b352a78" x="38.482813" y="10.999219" style="stroke: #000000; stroke-width: 0.8"/>
      </g>
     </g>
     <g id="text_13">
      <!-- 1.5 -->
      <g transform="translate(15.579688 14.798437)scale(0.1 -0.1)">
       <use xlink:href="#DejaVuSans-31"/>
       <use xlink:href="#DejaVuSans-2e" x="63.623047"/>
       <use xlink:href="#DejaVuSans-35" x="95.410156"/>
      </g>
     </g>
    </g>
   </g>
   <g id="line2d_14">
    <path d="M 66.382812 119.719219 
L 69.200994 115.122253 
L 72.019176 110.543798 
L 74.837358 106.002289 
L 77.65554 101.516013 
L 80.473722 97.103035 
L 83.291903 92.781124 
L 86.110085 88.567684 
L 88.928267 84.479679 
L 91.746449 80.533572 
L 94.564631 76.745252 
L 97.382812 73.129973 
L 100.200994 69.702292 
L 103.019176 66.476012 
L 105.837358 63.464123 
L 108.65554 60.678754 
L 111.473722 58.13112 
L 114.291903 55.831479 
L 117.110085 53.789092 
L 119.928267 52.012182 
L 122.746449 50.507904 
L 125.564631 49.282316 
L 128.382812 48.340353 
L 131.200994 47.685807 
L 134.019176 47.321314 
L 136.837358 47.248342 
L 139.65554 47.467185 
L 142.473722 47.976961 
L 145.291903 48.775617 
L 148.110085 49.859939 
L 150.928267 51.225559 
L 153.746449 52.86698 
L 156.564631 54.77759 
L 159.382812 56.949697 
L 162.200994 59.374556 
L 165.019176 62.042401 
L 167.837358 64.94249 
L 170.65554 68.063145 
L 173.473722 71.391802 
L 176.291903 74.915055 
L 179.110085 78.61872 
L 181.928267 82.487881 
L 184.746449 86.50696 
L 187.564631 90.659774 
L 190.382812 94.929599 
L 193.200994 99.299243 
L 196.019176 103.751111 
L 198.837358 108.267278 
L 201.65554 112.829557 
L 204.473722 117.419578 
L 207.291903 122.018859 
L 210.110085 126.608881 
L 212.928267 131.17116 
L 215.746449 135.687326 
L 218.564631 140.139194 
L 221.382812 144.508839 
L 224.200994 148.778664 
L 227.019176 152.931477 
L 229.837358 156.950556 
L 232.65554 160.819718 
L 235.473722 164.523382 
L 238.291903 168.046636 
L 241.110085 171.375292 
L 243.928267 174.495948 
L 246.746449 177.396037 
L 249.564631 180.063882 
L 252.382813 182.48874 
L 255.200994 184.660848 
L 258.019176 186.571458 
L 260.837358 188.212878 
L 263.65554 189.578498 
L 266.473722 190.66282 
L 269.291903 191.461477 
L 272.110085 191.971253 
L 274.928267 192.190096 
L 277.746449 192.117123 
L 280.564631 191.752631 
L 283.382812 191.098085 
L 286.200994 190.156121 
L 289.019176 188.930533 
L 291.837358 187.426256 
L 294.65554 185.649346 
L 297.473722 183.606959 
L 300.291903 181.307318 
L 303.110085 178.759684 
L 305.928267 175.974314 
L 308.746449 172.962426 
L 311.564631 169.736146 
L 314.382812 166.308465 
L 317.200994 162.693185 
L 320.019176 158.904865 
L 322.837358 154.958758 
L 325.65554 150.870754 
L 328.473722 146.657314 
L 331.291903 142.335403 
L 334.110085 137.922425 
L 336.928267 133.436149 
L 339.746449 128.89464 
L 342.564631 124.316184 
L 345.382812 119.719219 
" clip-path="url(#pff09b92519)" style="fill: none; stroke: #008000; stroke-width: 1.5; stroke-linecap: square"/>
   </g>
   <g id="line2d_15">
    <path d="M 66.382812 106.862389 
L 69.200994 103.03756 
L 72.019176 99.362889 
L 74.837358 95.840255 
L 77.65554 92.471496 
L 80.473722 89.258404 
L 83.291903 86.202718 
L 86.110085 83.306121 
L 88.928267 80.570234 
L 91.746449 77.996607 
L 94.564631 75.586718 
L 97.382812 73.341962 
L 100.200994 71.263647 
L 103.019176 69.352984 
L 105.837358 67.611084 
L 108.65554 66.038944 
L 111.473722 64.637447 
L 114.291903 63.407345 
L 117.110085 62.349258 
L 119.928267 61.463658 
L 122.746449 60.750866 
L 125.564631 60.21104 
L 128.382812 59.844162 
L 131.200994 59.650036 
L 134.019176 59.628269 
L 136.837358 59.778266 
L 139.65554 60.099218 
L 142.473722 60.590093 
L 145.291903 61.249621 
L 148.110085 62.076287 
L 150.928267 63.06832 
L 153.746449 64.22368 
L 156.564631 65.540048 
L 159.382812 67.014817 
L 162.200994 68.64508 
L 165.019176 70.427617 
L 167.837358 72.358893 
L 170.65554 74.435037 
L 173.473722 76.651844 
L 176.291903 79.004759 
L 179.110085 81.48887 
L 181.928267 84.098902 
L 184.746449 86.829211 
L 187.564631 89.673774 
L 190.382812 92.626188 
L 193.200994 95.679664 
L 196.019176 98.827024 
L 198.837358 102.0607 
L 201.65554 105.372734 
L 204.473722 108.754779 
L 207.291903 112.198102 
L 210.110085 115.693587 
L 212.928267 119.231744 
L 215.746449 122.802716 
L 218.564631 126.396292 
L 221.382812 130.001918 
L 224.200994 133.608712 
L 227.019176 137.205485 
L 229.837358 140.780763 
L 232.65554 144.322808 
L 235.473722 147.819648 
L 238.291903 151.259109 
L 241.110085 154.628848 
L 243.928267 157.916394 
L 246.746449 161.109191 
L 249.564631 164.194641 
L 252.382813 167.160164 
L 255.200994 169.993249 
L 258.019176 172.681516 
L 260.837358 175.212788 
L 263.65554 177.575161 
L 266.473722 179.757083 
L 269.291903 181.747439 
L 272.110085 183.535646 
L 274.928267 185.111748 
L 277.746449 186.466524 
L 280.564631 187.591601 
L 283.382812 188.479575 
L 286.200994 189.12414 
L 289.019176 189.520227 
L 291.837358 189.664149 
L 294.65554 189.55376 
L 297.473722 189.188618 
L 300.291903 188.570159 
L 303.110085 187.70189 
L 305.928267 186.589577 
L 308.746449 185.24146 
L 311.564631 183.66847 
L 314.382812 181.884463 
L 317.200994 179.906459 
L 320.019176 177.754908 
L 322.837358 175.453955 
L 325.65554 173.031726 
L 328.473722 170.520631 
L 331.291903 167.957674 
L 334.110085 165.384786 
L 336.928267 162.849173 
L 339.746449 160.403674 
L 342.564631 158.107145 
L 345.382812 156.024854 
" clip-path="url(#pff09b92519)" style="fill: none; stroke: #ff0000; stroke-width: 1.5; stroke-linecap: square"/>
   </g>
   <g id="patch_3">
    <path d="M 38.482813 228.439219 
L 38.482813 10.999219 
" style="fill: none; stroke: #000000; stroke-width: 0.8; stroke-linejoin: miter; stroke-linecap: square"/>
   </g>
   <g id="patch_4">
    <path d="M 373.282813 228.439219 
L 373.282813 10.999219 
" style="fill: none; stroke: #000000; stroke-width: 0.8; stroke-linejoin: miter; stroke-linecap: square"/>
   </g>
   <g id="patch_5">
    <path d="M 38.482812 228.439219 
L 373.282813 228.439219 
" style="fill: none; stroke: #000000; stroke-width: 0.8; stroke-linejoin: miter; stroke-linecap: square"/>
   </g>
   <g id="patch_6">
    <path d="M 38.482812 10.999219 
L 373.282813 10.999219 
" style="fill: none; stroke: #000000; stroke-width: 0.8; stroke-linejoin: miter; stroke-linecap: square"/>
   </g>
   <g id="text_14">
    <!-- M=9 -->
    <g transform="translate(289.582813 47.239219)scale(0.1 -0.1)">
     <defs>
      <path id="DejaVuSans-4d" d="M 628 4666 
L 1569 4666 
L 2759 1491 
L 3956 4666 
L 4897 4666 
L 4897 0 
L 4281 0 
L 4281 4097 
L 3078 897 
L 2444 897 
L 1241 4097 
L 1241 0 
L 628 0 
L 628 4666 
z
" transform="scale(0.015625)"/>
      <path id="DejaVuSans-3d" d="M 678 2906 
L 4684 2906 
L 4684 2381 
L 678 2381 
L 678 2906 
z
M 678 1631 
L 4684 1631 
L 4684 1100 
L 678 1100 
L 678 1631 
z
" transform="scale(0.015625)"/>
      <path id="DejaVuSans-39" d="M 703 97 
L 703 672 
Q 941 559 1184 500 
Q 1428 441 1663 441 
Q 2288 441 2617 861 
Q 2947 1281 2994 2138 
Q 2813 1869 2534 1725 
Q 2256 1581 1919 1581 
Q 1219 1581 811 2004 
Q 403 2428 403 3163 
Q 403 3881 828 4315 
Q 1253 4750 1959 4750 
Q 2769 4750 3195 4129 
Q 3622 3509 3622 2328 
Q 3622 1225 3098 567 
Q 2575 -91 1691 -91 
Q 1453 -91 1209 -44 
Q 966 3 703 97 
z
M 1959 2075 
Q 2384 2075 2632 2365 
Q 2881 2656 2881 3163 
Q 2881 3666 2632 3958 
Q 2384 4250 1959 4250 
Q 1534 4250 1286 3958 
Q 1038 3666 1038 3163 
Q 1038 2656 1286 2365 
Q 1534 2075 1959 2075 
z
" transform="scale(0.015625)"/>
     </defs>
     <use xlink:href="#DejaVuSans-4d"/>
     <use xlink:href="#DejaVuSans-3d" x="86.279297"/>
     <use xlink:href="#DejaVuSans-39" x="170.068359"/>
    </g>
   </g>
   <g id="legend_1">
    <g id="patch_7">
     <path d="M 392.022813 72.711719 
L 488.465 72.711719 
Q 490.465 72.711719 490.465 70.711719 
L 490.465 12.999219 
Q 490.465 10.999219 488.465 10.999219 
L 392.022813 10.999219 
Q 390.022813 10.999219 390.022813 12.999219 
L 390.022813 70.711719 
Q 390.022813 72.711719 392.022813 72.711719 
z
" style="fill: #ffffff; opacity: 0.8; stroke: #cccccc; stroke-linejoin: miter"/>
    </g>
    <g id="PathCollection_2">
     <path d="M 404.022813 23.50819 
C 404.960447 23.50819 405.859805 23.135664 406.522813 22.472656 
C 407.18582 21.809648 407.558346 20.910291 407.558346 19.972656 
C 407.558346 19.035022 407.18582 18.135664 406.522813 17.472656 
C 405.859805 16.809648 404.960447 16.437122 404.022813 16.437122 
C 403.085178 16.437122 402.18582 16.809648 401.522813 17.472656 
C 400.859805 18.135664 400.487279 19.035022 400.487279 19.972656 
C 400.487279 20.910291 400.859805 21.809648 401.522813 22.472656 
C 402.18582 23.135664 403.085178 23.50819 404.022813 23.50819 
L 404.022813 23.50819 
z
" style="fill: none; stroke: #0000ff"/>
    </g>
    <g id="text_15">
     <!-- training data -->
     <g transform="translate(422.022813 22.597656)scale(0.1 -0.1)">
      <defs>
       <path id="DejaVuSans-74" d="M 1172 4494 
L 1172 3500 
L 2356 3500 
L 2356 3053 
L 1172 3053 
L 1172 1153 
Q 1172 725 1289 603 
Q 1406 481 1766 481 
L 2356 481 
L 2356 0 
L 1766 0 
Q 1100 0 847 248 
Q 594 497 594 1153 
L 594 3053 
L 172 3053 
L 172 3500 
L 594 3500 
L 594 4494 
L 1172 4494 
z
" transform="scale(0.015625)"/>
       <path id="DejaVuSans-72" d="M 2631 2963 
Q 2534 3019 2420 3045 
Q 2306 3072 2169 3072 
Q 1681 3072 1420 2755 
Q 1159 2438 1159 1844 
L 1159 0 
L 581 0 
L 581 3500 
L 1159 3500 
L 1159 2956 
Q 1341 3275 1631 3429 
Q 1922 3584 2338 3584 
Q 2397 3584 2469 3576 
Q 2541 3569 2628 3553 
L 2631 2963 
z
" transform="scale(0.015625)"/>
       <path id="DejaVuSans-61" d="M 2194 1759 
Q 1497 1759 1228 1600 
Q 959 1441 959 1056 
Q 959 750 1161 570 
Q 1363 391 1709 391 
Q 2188 391 2477 730 
Q 2766 1069 2766 1631 
L 2766 1759 
L 2194 1759 
z
M 3341 1997 
L 3341 0 
L 2766 0 
L 2766 531 
Q 2569 213 2275 61 
Q 1981 -91 1556 -91 
Q 1019 -91 701 211 
Q 384 513 384 1019 
Q 384 1609 779 1909 
Q 1175 2209 1959 2209 
L 2766 2209 
L 2766 2266 
Q 2766 2663 2505 2880 
Q 2244 3097 1772 3097 
Q 1472 3097 1187 3025 
Q 903 2953 641 2809 
L 641 3341 
Q 956 3463 1253 3523 
Q 1550 3584 1831 3584 
Q 2591 3584 2966 3190 
Q 3341 2797 3341 1997 
z
" transform="scale(0.015625)"/>
       <path id="DejaVuSans-69" d="M 603 3500 
L 1178 3500 
L 1178 0 
L 603 0 
L 603 3500 
z
M 603 4863 
L 1178 4863 
L 1178 4134 
L 603 4134 
L 603 4863 
z
" transform="scale(0.015625)"/>
       <path id="DejaVuSans-6e" d="M 3513 2113 
L 3513 0 
L 2938 0 
L 2938 2094 
Q 2938 2591 2744 2837 
Q 2550 3084 2163 3084 
Q 1697 3084 1428 2787 
Q 1159 2491 1159 1978 
L 1159 0 
L 581 0 
L 581 3500 
L 1159 3500 
L 1159 2956 
Q 1366 3272 1645 3428 
Q 1925 3584 2291 3584 
Q 2894 3584 3203 3211 
Q 3513 2838 3513 2113 
z
" transform="scale(0.015625)"/>
       <path id="DejaVuSans-67" d="M 2906 1791 
Q 2906 2416 2648 2759 
Q 2391 3103 1925 3103 
Q 1463 3103 1205 2759 
Q 947 2416 947 1791 
Q 947 1169 1205 825 
Q 1463 481 1925 481 
Q 2391 481 2648 825 
Q 2906 1169 2906 1791 
z
M 3481 434 
Q 3481 -459 3084 -895 
Q 2688 -1331 1869 -1331 
Q 1566 -1331 1297 -1286 
Q 1028 -1241 775 -1147 
L 775 -588 
Q 1028 -725 1275 -790 
Q 1522 -856 1778 -856 
Q 2344 -856 2625 -561 
Q 2906 -266 2906 331 
L 2906 616 
Q 2728 306 2450 153 
Q 2172 0 1784 0 
Q 1141 0 747 490 
Q 353 981 353 1791 
Q 353 2603 747 3093 
Q 1141 3584 1784 3584 
Q 2172 3584 2450 3431 
Q 2728 3278 2906 2969 
L 2906 3500 
L 3481 3500 
L 3481 434 
z
" transform="scale(0.015625)"/>
       <path id="DejaVuSans-20" transform="scale(0.015625)"/>
       <path id="DejaVuSans-64" d="M 2906 2969 
L 2906 4863 
L 3481 4863 
L 3481 0 
L 2906 0 
L 2906 525 
Q 2725 213 2448 61 
Q 2172 -91 1784 -91 
Q 1150 -91 751 415 
Q 353 922 353 1747 
Q 353 2572 751 3078 
Q 1150 3584 1784 3584 
Q 2172 3584 2448 3432 
Q 2725 3281 2906 2969 
z
M 947 1747 
Q 947 1113 1208 752 
Q 1469 391 1925 391 
Q 2381 391 2643 752 
Q 2906 1113 2906 1747 
Q 2906 2381 2643 2742 
Q 2381 3103 1925 3103 
Q 1469 3103 1208 2742 
Q 947 2381 947 1747 
z
" transform="scale(0.015625)"/>
      </defs>
      <use xlink:href="#DejaVuSans-74"/>
      <use xlink:href="#DejaVuSans-72" x="39.208984"/>
      <use xlink:href="#DejaVuSans-61" x="80.322266"/>
      <use xlink:href="#DejaVuSans-69" x="141.601562"/>
      <use xlink:href="#DejaVuSans-6e" x="169.384766"/>
      <use xlink:href="#DejaVuSans-69" x="232.763672"/>
      <use xlink:href="#DejaVuSans-6e" x="260.546875"/>
      <use xlink:href="#DejaVuSans-67" x="323.925781"/>
      <use xlink:href="#DejaVuSans-20" x="387.402344"/>
      <use xlink:href="#DejaVuSans-64" x="419.189453"/>
      <use xlink:href="#DejaVuSans-61" x="482.666016"/>
      <use xlink:href="#DejaVuSans-74" x="543.945312"/>
      <use xlink:href="#DejaVuSans-61" x="583.154297"/>
     </g>
    </g>
    <g id="line2d_16">
     <path d="M 394.022813 33.775781 
L 404.022813 33.775781 
L 414.022813 33.775781 
" style="fill: none; stroke: #008000; stroke-width: 1.5; stroke-linecap: square"/>
    </g>
    <g id="text_16">
     <!-- $\sin(2\pi x)$ -->
     <g transform="translate(422.022813 37.275781)scale(0.1 -0.1)">
      <defs>
       <path id="DejaVuSans-73" d="M 2834 3397 
L 2834 2853 
Q 2591 2978 2328 3040 
Q 2066 3103 1784 3103 
Q 1356 3103 1142 2972 
Q 928 2841 928 2578 
Q 928 2378 1081 2264 
Q 1234 2150 1697 2047 
L 1894 2003 
Q 2506 1872 2764 1633 
Q 3022 1394 3022 966 
Q 3022 478 2636 193 
Q 2250 -91 1575 -91 
Q 1294 -91 989 -36 
Q 684 19 347 128 
L 347 722 
Q 666 556 975 473 
Q 1284 391 1588 391 
Q 1994 391 2212 530 
Q 2431 669 2431 922 
Q 2431 1156 2273 1281 
Q 2116 1406 1581 1522 
L 1381 1569 
Q 847 1681 609 1914 
Q 372 2147 372 2553 
Q 372 3047 722 3315 
Q 1072 3584 1716 3584 
Q 2034 3584 2315 3537 
Q 2597 3491 2834 3397 
z
" transform="scale(0.015625)"/>
       <path id="DejaVuSans-28" d="M 1984 4856 
Q 1566 4138 1362 3434 
Q 1159 2731 1159 2009 
Q 1159 1288 1364 580 
Q 1569 -128 1984 -844 
L 1484 -844 
Q 1016 -109 783 600 
Q 550 1309 550 2009 
Q 550 2706 781 3412 
Q 1013 4119 1484 4856 
L 1984 4856 
z
" transform="scale(0.015625)"/>
       <path id="DejaVuSans-Oblique-3c0" d="M 584 3500 
L 3938 3500 
L 3825 2925 
L 3384 2925 
L 2966 775 
Q 2922 550 2981 450 
Q 3038 353 3209 353 
Q 3256 353 3325 363 
Q 3397 369 3419 372 
L 3338 -44 
Q 3222 -84 3103 -103 
Q 2981 -122 2866 -122 
Q 2491 -122 2388 81 
Q 2284 288 2391 838 
L 2797 2925 
L 1506 2925 
L 938 0 
L 350 0 
L 919 2925 
L 472 2925 
L 584 3500 
z
" transform="scale(0.015625)"/>
       <path id="DejaVuSans-Oblique-78" d="M 3841 3500 
L 2234 1784 
L 3219 0 
L 2559 0 
L 1819 1388 
L 531 0 
L -166 0 
L 1556 1844 
L 641 3500 
L 1300 3500 
L 1972 2234 
L 3144 3500 
L 3841 3500 
z
" transform="scale(0.015625)"/>
       <path id="DejaVuSans-29" d="M 513 4856 
L 1013 4856 
Q 1481 4119 1714 3412 
Q 1947 2706 1947 2009 
Q 1947 1309 1714 600 
Q 1481 -109 1013 -844 
L 513 -844 
Q 928 -128 1133 580 
Q 1338 1288 1338 2009 
Q 1338 2731 1133 3434 
Q 928 4138 513 4856 
z
" transform="scale(0.015625)"/>
      </defs>
      <use xlink:href="#DejaVuSans-73" transform="translate(0 0.015625)"/>
      <use xlink:href="#DejaVuSans-69" transform="translate(52.099609 0.015625)"/>
      <use xlink:href="#DejaVuSans-6e" transform="translate(79.882812 0.015625)"/>
      <use xlink:href="#DejaVuSans-28" transform="translate(143.261719 0.015625)"/>
      <use xlink:href="#DejaVuSans-32" transform="translate(182.275391 0.015625)"/>
      <use xlink:href="#DejaVuSans-Oblique-3c0" transform="translate(245.898438 0.015625)"/>
      <use xlink:href="#DejaVuSans-Oblique-78" transform="translate(306.103516 0.015625)"/>
      <use xlink:href="#DejaVuSans-29" transform="translate(365.283203 0.015625)"/>
     </g>
    </g>
    <g id="line2d_17">
     <path d="M 394.022813 48.453906 
L 404.022813 48.453906 
L 414.022813 48.453906 
" style="fill: none; stroke: #ff0000; stroke-width: 1.5; stroke-linecap: square"/>
    </g>
    <g id="text_17">
     <!-- mean -->
     <g transform="translate(422.022813 51.953906)scale(0.1 -0.1)">
      <defs>
       <path id="DejaVuSans-6d" d="M 3328 2828 
Q 3544 3216 3844 3400 
Q 4144 3584 4550 3584 
Q 5097 3584 5394 3201 
Q 5691 2819 5691 2113 
L 5691 0 
L 5113 0 
L 5113 2094 
Q 5113 2597 4934 2840 
Q 4756 3084 4391 3084 
Q 3944 3084 3684 2787 
Q 3425 2491 3425 1978 
L 3425 0 
L 2847 0 
L 2847 2094 
Q 2847 2600 2669 2842 
Q 2491 3084 2119 3084 
Q 1678 3084 1418 2786 
Q 1159 2488 1159 1978 
L 1159 0 
L 581 0 
L 581 3500 
L 1159 3500 
L 1159 2956 
Q 1356 3278 1631 3431 
Q 1906 3584 2284 3584 
Q 2666 3584 2933 3390 
Q 3200 3197 3328 2828 
z
" transform="scale(0.015625)"/>
       <path id="DejaVuSans-65" d="M 3597 1894 
L 3597 1613 
L 953 1613 
Q 991 1019 1311 708 
Q 1631 397 2203 397 
Q 2534 397 2845 478 
Q 3156 559 3463 722 
L 3463 178 
Q 3153 47 2828 -22 
Q 2503 -91 2169 -91 
Q 1331 -91 842 396 
Q 353 884 353 1716 
Q 353 2575 817 3079 
Q 1281 3584 2069 3584 
Q 2775 3584 3186 3129 
Q 3597 2675 3597 1894 
z
M 3022 2063 
Q 3016 2534 2758 2815 
Q 2500 3097 2075 3097 
Q 1594 3097 1305 2825 
Q 1016 2553 972 2059 
L 3022 2063 
z
" transform="scale(0.015625)"/>
      </defs>
      <use xlink:href="#DejaVuSans-6d"/>
      <use xlink:href="#DejaVuSans-65" x="97.412109"/>
      <use xlink:href="#DejaVuSans-61" x="158.935547"/>
      <use xlink:href="#DejaVuSans-6e" x="220.214844"/>
     </g>
    </g>
    <g id="patch_8">
     <path d="M 394.022813 66.632031 
L 414.022813 66.632031 
L 414.022813 59.632031 
L 394.022813 59.632031 
z
" style="fill: #ffc0cb; fill-opacity: 0.5; stroke: #ffc0cb; stroke-opacity: 0.5; stroke-linejoin: miter"/>
    </g>
    <g id="text_18">
     <!-- std. -->
     <g transform="translate(422.022813 66.632031)scale(0.1 -0.1)">
      <use xlink:href="#DejaVuSans-73"/>
      <use xlink:href="#DejaVuSans-74" x="52.099609"/>
      <use xlink:href="#DejaVuSans-64" x="91.308594"/>
      <use xlink:href="#DejaVuSans-2e" x="154.785156"/>
     </g>
    </g>
   </g>
  </g>
 </g>
 <defs>
  <clipPath id="pff09b92519">
   <rect x="38.482813" y="10.999219" width="334.8" height="217.44"/>
  </clipPath>
 </defs>
</svg>
