<?xml version="1.0" standalone="no"?>
<!DOCTYPE svg PUBLIC "-//W3C//DTD SVG 20010904//EN"
 "http://www.w3.org/TR/2001/REC-SVG-20010904/DTD/svg10.dtd">
<svg version="1.0" xmlns="http://www.w3.org/2000/svg"
 width="360.000000pt" height="360.000000pt" viewBox="0 0 360.000000 360.000000"
 preserveAspectRatio="xMidYMid meet">
<metadata>
Created by potrace 1.14, written by Peter Selinger 2001-2017
</metadata>
<g transform="translate(0.000000,360.000000) scale(0.100000,-0.100000)"
fill="#000000" stroke="none">
<path d="M1420 3585 c-25 -7 -56 -16 -70 -21 -14 -4 -34 -13 -45 -21 -11 -7
-42 -13 -69 -13 -74 0 -170 -27 -267 -76 -77 -38 -207 -126 -234 -157 -70 -81
-211 -152 -335 -168 -53 -6 -75 -4 -124 12 -32 11 -61 17 -65 14 -9 -10 37
-45 99 -74 47 -22 70 -26 158 -27 57 -1 105 -4 108 -7 3 -2 -13 -31 -35 -62
-55 -78 -81 -152 -80 -223 1 -31 4 -43 6 -27 9 74 44 175 61 175 4 0 6 -43 5
-95 -1 -70 -8 -118 -29 -187 -24 -82 -28 -109 -27 -223 0 -134 17 -221 49
-261 14 -18 15 -17 10 16 -19 112 -19 123 -5 118 7 -2 16 -13 19 -24 7 -25 41
-87 45 -82 2 2 -5 28 -15 58 -31 91 -34 150 -14 258 l18 97 12 -125 c6 -69 17
-145 23 -170 17 -60 84 -187 122 -230 l31 -35 -19 35 c-27 50 -66 150 -61 155
2 3 26 -21 53 -52 l49 -56 2 -81 c4 -160 -30 -344 -83 -448 -34 -68 34 -6 72
65 11 20 22 37 26 37 10 0 19 -41 19 -91 0 -53 24 -129 57 -181 22 -36 51 -53
40 -24 -3 8 -8 60 -11 117 -6 104 1 170 19 175 6 2 25 -28 43 -66 18 -37 53
-91 78 -119 41 -45 46 -56 40 -83 -10 -48 -31 -74 -86 -104 -27 -15 -52 -34
-55 -43 -3 -9 -21 -25 -41 -36 -46 -25 -116 -115 -156 -202 -34 -73 -96 -140
-278 -302 -52 -46 -99 -91 -104 -99 -9 -16 -1 -141 13 -190 10 -34 21 -18
-154 -243 -45 -57 -93 -123 -108 -147 l-27 -42 1486 0 1487 0 -41 30 c-22 16
-42 39 -44 52 -2 17 -14 26 -51 37 -35 11 -46 19 -43 30 3 9 15 55 27 104 12
48 27 87 33 87 6 0 53 -11 104 -25 51 -14 97 -25 102 -25 7 0 19 24 25 50 3
13 28 100 40 140 8 25 28 92 45 150 17 58 45 150 62 205 17 55 31 104 32 110
2 5 13 44 26 85 13 41 25 82 26 91 2 9 14 52 28 95 13 44 36 120 51 169 14 50
38 124 52 165 33 98 45 268 19 282 -9 5 -16 13 -16 19 0 10 -58 82 -154 192
-28 32 -69 67 -92 77 -81 38 -229 102 -239 104 -5 1 -25 8 -42 16 -27 12 -33
20 -33 47 0 21 -6 36 -17 41 -25 13 -43 4 -43 -20 0 -17 -4 -19 -25 -14 -20 5
-46 -6 -115 -46 -77 -46 -89 -57 -95 -86 l-6 -33 -52 41 c-28 23 -65 58 -82
78 -38 45 -79 111 -73 117 9 9 108 -73 145 -118 37 -45 53 -51 53 -19 0 30
-56 116 -105 161 -25 23 -45 44 -43 46 12 13 166 27 235 22 92 -7 154 -29 193
-70 14 -15 28 -27 33 -27 14 0 7 53 -13 85 -24 39 -110 107 -164 129 -46 19
-41 27 34 51 66 21 122 49 137 67 9 11 -5 13 -75 14 -95 2 -158 19 -295 82
-72 32 -80 40 -104 86 -63 126 -347 445 -455 512 -24 14 -66 44 -93 65 -77 58
-189 106 -300 129 -115 23 -181 24 -245 5z m1026 -667 c8 -16 13 -32 11 -35
-6 -6 -47 52 -47 67 0 18 19 2 36 -32z m184 -979 c0 -21 -23 -100 -30 -104
-10 -6 -30 83 -23 102 6 15 53 18 53 2z m-147 -247 l38 -25 -43 -29 c-24 -15
-48 -28 -54 -28 -18 0 -54 94 -54 141 l0 42 38 -38 c20 -20 54 -49 75 -63z
m-335 -67 c2 -101 63 -305 93 -305 7 0 9 9 5 23 -3 13 -8 57 -12 98 l-6 74 36
-40 c24 -27 34 -46 31 -60 -3 -11 -20 -74 -37 -140 -17 -66 -34 -124 -38 -128
-13 -15 -50 16 -77 63 -14 25 -39 59 -55 76 -27 29 -29 36 -26 100 3 66 4 68
17 42 24 -47 34 -33 27 36 -6 57 6 186 21 226 8 22 20 -16 21 -65z m-994 -137
c37 -41 44 -54 31 -56 -20 -4 -61 32 -81 70 -30 57 -9 51 50 -14z"/>
</g>
</svg>
